<svg xmlns="http://www.w3.org/2000/svg" xmlns:xlink="http://www.w3.org/1999/xlink" version="1.1" width="1000" height="1000" viewBox="0 0 1000 1000" xml:space="preserve">
<desc>Created with Fabric.js 3.5.0</desc>
<defs>
</defs>
<rect x="0" y="0" width="100%" height="100%" fill="#ffffff"/>
<g transform="matrix(56.8182 0 0 56.8182 500.0001 500.0001)" id="489897">
<g style="" vector-effect="non-scaling-stroke">
		<g transform="matrix(1 0 0 1 0 0)">
<path style="stroke: none; stroke-width: 1; stroke-dasharray: none; stroke-linecap: butt; stroke-dashoffset: 0; stroke-linejoin: miter; stroke-miterlimit: 4; is-custom-font: none; font-file-url: none; fill: rgb(83,211,48); fill-rule: nonzero; opacity: 1;" transform=" translate(-8, -8)" d="M 2.50001 8.00084 C 2.49986 7.03532 2.75388 6.08677 3.23655 5.25054 C 3.71921 4.41432 4.41351 3.71989 5.24964 3.23706 C 6.08577 2.75423 7.03427 2.50002 7.99979 2.49998 C 8.96532 2.49995 9.91384 2.75408 10.75 3.23684 C 10.8648 3.3021 11.0007 3.31931 11.1281 3.28472 C 11.2556 3.25012 11.3641 3.16653 11.4301 3.05219 C 11.4962 2.93785 11.5143 2.80203 11.4805 2.67438 C 11.4468 2.54674 11.3639 2.43762 11.25 2.37084 C 10.0109 1.65543 8.57029 1.36887 7.15169 1.5556 C 5.73309 1.74234 4.41575 2.39195 3.40396 3.40367 C 2.39218 4.41539 1.74249 5.73269 1.55566 7.15128 C 1.36883 8.56986 1.6553 10.0105 2.37064 11.2496 C 3.08597 12.4888 4.19021 13.4574 5.51208 14.005 C 6.83396 14.5527 8.29961 14.6489 9.68173 14.2787 C 11.0638 13.9085 12.2852 13.0926 13.1564 11.9575 C 14.0275 10.8225 14.4998 9.43168 14.5 8.00084 C 14.5 7.86824 14.4473 7.74106 14.3536 7.64729 C 14.2598 7.55352 14.1326 7.50084 14 7.50084 C 13.8674 7.50084 13.7402 7.55352 13.6465 7.64729 C 13.5527 7.74106 13.5 7.86824 13.5 8.00084 C 13.5 9.45953 12.9205 10.8585 11.8891 11.8899 C 10.8576 12.9214 9.4587 13.5008 8.00001 13.5008 C 6.54132 13.5008 5.14237 12.9214 4.11092 11.8899 C 3.07947 10.8585 2.50001 9.45953 2.50001 8.00084 Z" stroke-linecap="round"/>
</g>
		<g transform="matrix(1 0 0 1 2.0007 -1.4992)">
<path style="stroke: none; stroke-width: 1; stroke-dasharray: none; stroke-linecap: butt; stroke-dashoffset: 0; stroke-linejoin: miter; stroke-miterlimit: 4; is-custom-font: none; font-file-url: none; fill: rgb(83,211,48); fill-rule: nonzero; opacity: 1;" transform=" translate(-10.0007, -6.5008)" d="M 15.3546 3.35463 C 15.4011 3.30814 15.438 3.25295 15.4632 3.19222 C 15.4883 3.13148 15.5013 3.06638 15.5013 3.00063 C 15.5013 2.93489 15.4883 2.86979 15.4632 2.80905 C 15.438 2.74831 15.4011 2.69312 15.3546 2.64663 C 15.3081 2.60014 15.253 2.56327 15.1922 2.53811 C 15.1315 2.51295 15.0664 2.5 15.0006 2.5 C 14.9349 2.5 14.8698 2.51295 14.809 2.53811 C 14.7483 2.56327 14.6931 2.60014 14.6466 2.64663 L 8.00063 9.29363 L 5.35463 6.64663 C 5.30814 6.60014 5.25295 6.56327 5.19222 6.53811 C 5.13148 6.51295 5.06638 6.5 5.00063 6.5 C 4.93489 6.5 4.86979 6.51295 4.80905 6.53811 C 4.74831 6.56327 4.69312 6.60014 4.64663 6.64663 C 4.60014 6.69312 4.56327 6.74831 4.53811 6.80905 C 4.51295 6.86979 4.5 6.93489 4.5 7.00063 C 4.5 7.06638 4.51295 7.13148 4.53811 7.19222 C 4.56327 7.25295 4.60014 7.30814 4.64663 7.35463 L 7.64663 10.3546 C 7.69308 10.4012 7.74825 10.4381 7.809 10.4633 C 7.86974 10.4886 7.93486 10.5015 8.00063 10.5015 C 8.0664 10.5015 8.13152 10.4886 8.19227 10.4633 C 8.25301 10.4381 8.30819 10.4012 8.35463 10.3546 L 15.3546 3.35463 Z" stroke-linecap="round"/>
</g>
</g>
</g>
</svg>