<svg width="32" height="32" viewBox="0 0 32 32" fill="none" xmlns="http://www.w3.org/2000/svg">
<g opacity="0.6" clip-path="url(#clip0_366_46067)">
<path d="M11.0304 14.0257C8.71442 14.0257 6.85488 13.3312 5.49403 11.9591C3.39781 9.83333 2.60328 6.23386 3.04281 0.948989C3.06817 0.601746 3.26257 0.279911 3.54996 0.0851159C3.8458 -0.109679 4.20925 -0.152026 4.5389 -0.0419242C9.38217 1.58419 12.2898 3.70999 13.4394 6.45406C14.2931 8.50364 14.1071 10.8242 12.873 13.3566C12.6955 13.7208 12.3321 13.9664 11.9264 13.9918C11.6221 14.0172 11.3178 14.0257 11.0304 14.0257ZM5.232 2.64286C5.09676 6.35243 5.7307 8.94405 7.12536 10.35C8.05513 11.2985 9.35681 11.7474 11.098 11.7389C11.7911 10.0705 11.8672 8.62221 11.3347 7.34334C10.5655 5.51396 8.52002 3.93867 5.232 2.64286Z" fill="#B4D411"/>
<path d="M7.32716 26.3498C5.44226 26.3498 3.21926 25.6299 0.590534 24.1732C0.286245 24.0038 0.0749331 23.6989 0.0157657 23.3516C-0.0434017 23.0044 0.0664806 22.6487 0.30315 22.3946C3.08402 19.3711 5.60286 17.9228 8.03717 17.9906C9.86291 18.0329 11.5365 18.9561 12.9988 20.7177C13.2608 21.031 13.3369 21.463 13.1932 21.8441C12.424 23.9614 11.1815 25.3504 9.5079 25.9771C8.84016 26.2312 8.11324 26.3498 7.32716 26.3498ZM3.04175 22.8689C5.45916 24.0123 7.36097 24.3426 8.71337 23.8344C9.59243 23.5041 10.2771 22.8011 10.7927 21.6832C9.89672 20.7685 8.96694 20.3027 7.978 20.2773C6.54108 20.2434 4.89285 21.1157 3.04175 22.8689Z" fill="#B4D411"/>
<path d="M24.7229 24.596C23.7509 24.596 22.7197 24.3589 21.6208 23.8846C21.2489 23.7237 20.9869 23.3765 20.9362 22.9699C20.6573 20.6917 21.139 18.8454 22.3647 17.4818C23.9791 15.6778 26.7599 14.8224 30.8678 14.8648C31.2144 14.8648 31.544 15.0342 31.7638 15.3137C31.9751 15.5931 32.0512 15.9573 31.9667 16.2961C30.9101 20.4291 29.3295 22.9615 27.1488 24.0371C26.3965 24.4097 25.585 24.596 24.7229 24.596ZM23.1592 22.0214C24.3256 22.411 25.3061 22.394 26.1514 21.979C27.4446 21.3438 28.5096 19.7346 29.3379 17.1854C26.7937 17.3294 25.0272 17.9391 24.0721 19.0063C23.4043 19.7516 23.1085 20.7425 23.1592 22.0214Z" fill="#B4D411"/>
<path d="M22.7438 10.5293H21.0956V8.87774C21.0956 8.24254 20.58 7.73438 19.9545 7.73438C19.3206 7.73438 18.8134 8.24254 18.8134 8.87774V10.5293H17.1567C16.5228 10.5293 16.0156 11.0374 16.0156 11.6726C16.0156 12.3078 16.5312 12.816 17.1567 12.816H18.8049V14.4675C18.8049 15.1027 19.3206 15.6109 19.946 15.6109C20.58 15.6109 21.0871 15.1027 21.0871 14.4675V12.816H22.7354C23.3693 12.816 23.8764 12.3078 23.8764 11.6726C23.8849 11.0459 23.3778 10.5293 22.7438 10.5293Z" fill="#F43460"/>
<path d="M12.6443 17.659L22.128 31.0998H24.9596L14.7152 16.6342C14.2756 15.838 13.9122 15.6094 13.1007 15.6094C12.3569 15.6094 11.9766 15.7957 11.9766 16.1684C11.9766 16.541 12.2301 16.9645 12.5767 17.5404L12.6443 17.659Z" fill="#2D3339"/>
</g>
<defs>
<clipPath id="clip0_366_46067">
<rect width="32" height="32" fill="white"/>
</clipPath>
</defs>
</svg>
