<svg width="88" height="88" viewBox="0 0 88 88" fill="none" xmlns="http://www.w3.org/2000/svg">
<path d="M75.0758 32.7266C75.0758 15.6766 61.0508 1.78906 44.0008 1.78906C26.9508 1.78906 12.9258 15.6766 12.9258 32.7266C12.9258 43.0391 18.0133 52.2516 25.8508 57.8891V83.8766C25.8508 84.7016 26.2633 85.3891 26.8133 85.8016C27.3633 86.2141 28.1883 86.3516 29.0133 86.2141L44.0008 81.4016L58.9883 86.2141C59.2633 86.3516 59.5383 86.3516 59.6758 86.3516C60.2258 86.3516 60.6383 86.2141 61.0508 85.9391C61.7383 85.5266 62.0133 84.7016 62.0133 84.0141V57.8891C69.9883 52.2516 75.0758 43.0391 75.0758 32.7266ZM57.3383 80.5766L44.6883 76.5891C44.2758 76.4516 43.7258 76.4516 43.1758 76.5891L30.5258 80.5766V60.7766C34.5133 62.7016 39.0508 63.8016 43.8633 63.8016C48.6758 63.8016 53.2133 62.7016 57.2008 60.7766V80.5766H57.3383ZM44.0008 58.9891C29.5633 58.9891 17.7383 47.1641 17.7383 32.7266C17.7383 18.2891 29.5633 6.46406 44.0008 6.46406C58.4383 6.46406 70.2633 18.2891 70.2633 32.7266C70.2633 47.1641 58.4383 58.9891 44.0008 58.9891Z" fill="#0D5959"/>
<path d="M53.0767 25.8526L38.6392 38.2276L34.7892 31.4901C34.1017 30.3901 32.5892 29.9776 31.4892 30.6651C30.3892 31.3526 29.9767 32.8651 30.6642 33.9651L36.0267 43.1776C36.4392 43.8651 36.9892 44.2776 37.6767 44.2776C37.8142 44.2776 37.9517 44.2776 38.0892 44.2776C38.6392 44.2776 39.1892 44.1401 39.6017 43.7276L56.2392 29.4276C57.2017 28.6026 57.3392 27.0901 56.5142 25.9901C55.6892 25.0276 54.1767 25.0276 53.0767 25.8526Z" fill="#0D5959"/>
</svg>
