<svg width="104" height="104" viewBox="0 0 104 104" fill="none" xmlns="http://www.w3.org/2000/svg">
<circle cx="52" cy="52" r="52" fill="#F1F9B8"/>
<path d="M72.0324 44.7322C72.0324 33.7413 62.9915 24.7891 52.0006 24.7891C41.0097 24.7891 31.9688 33.7413 31.9688 44.7322C31.9688 51.38 35.2483 57.3186 40.3006 60.9527V77.705C40.3006 78.2368 40.5665 78.68 40.921 78.9459C41.2756 79.2118 41.8074 79.3004 42.3392 79.2118L52.0006 76.1095L61.6619 79.2118C61.8392 79.3004 62.0165 79.3004 62.1051 79.3004C62.4597 79.3004 62.7256 79.2118 62.9915 79.0345C63.4347 78.7686 63.6119 78.2368 63.6119 77.7936V60.9527C68.7528 57.3186 72.0324 51.38 72.0324 44.7322ZM60.5983 75.5777L52.4438 73.0072C52.1778 72.9186 51.8233 72.9186 51.4688 73.0072L43.3142 75.5777V62.8141C45.8847 64.055 48.8097 64.7641 51.9119 64.7641C55.0142 64.7641 57.9392 64.055 60.5097 62.8141V75.5777H60.5983ZM52.0006 61.6618C42.6938 61.6618 35.071 54.0391 35.071 44.7322C35.071 35.4254 42.6938 27.8027 52.0006 27.8027C61.3074 27.8027 68.9301 35.4254 68.9301 44.7322C68.9301 54.0391 61.3074 61.6618 52.0006 61.6618Z" fill="#0D5959"/>
<path d="M57.8519 40.2986L48.5451 48.2759L46.0633 43.9327C45.6201 43.2236 44.6451 42.9577 43.936 43.4009C43.2269 43.844 42.961 44.819 43.4042 45.5281L46.861 51.4668C47.1269 51.9099 47.4814 52.1759 47.9246 52.1759C48.0133 52.1759 48.1019 52.1759 48.1905 52.1759C48.5451 52.1759 48.8996 52.0872 49.1655 51.8213L59.8905 42.6031C60.511 42.0713 60.5996 41.0963 60.0678 40.3872C59.536 39.7668 58.561 39.7668 57.8519 40.2986Z" fill="#0D5959"/>
</svg>
