<svg width="128" height="40" viewBox="0 0 128 40" fill="none" xmlns="http://www.w3.org/2000/svg">
<path d="M58.101 16.703L60.7492 26.4485C61.0305 27.4909 61.4992 28 62.9054 28C64.2881 28 64.7334 27.4909 64.9677 26.497L68.0613 13.9394C68.1316 13.6485 68.2254 13.2848 68.2254 13.0182C68.2254 12.4848 67.9207 12 66.702 12C65.6005 12 65.249 12.4121 65.0381 13.3576L62.7647 23.9515L60.2102 14.2061C59.929 13.0667 59.4603 12.5818 58.1947 12.5818C56.8823 12.5818 56.4136 13.1152 56.1323 14.2061L53.5075 23.9515L51.3045 13.3576C51.117 12.4121 50.742 12 49.5937 12C48.3047 12 48 12.4848 48 13.0182C48 13.2848 48.0703 13.6485 48.1406 13.9394L51.1639 26.497C51.4217 27.4909 51.8435 28 53.2497 28C54.7965 28 55.1246 27.3939 55.4058 26.4485L58.101 16.703Z" fill="#2D3339"/>
<path d="M81.0894 12C80.0348 12 79.5192 12.4364 79.5192 13.3091V18.3273H73.4961V13.3091C73.4961 12.4364 72.9805 12 71.9024 12C70.8244 12 70.3088 12.4364 70.3088 13.3091V26.6909C70.3088 27.5636 70.8244 28 71.9024 28C72.9805 28 73.4961 27.5636 73.4961 26.6909V21.2606H79.5192V26.6909C79.5192 27.5636 80.0348 28 81.1128 28C82.1675 28 82.6831 27.5636 82.6831 26.6909V13.3091C82.6831 12.4364 82.1675 12 81.0894 12Z" fill="#2D3339"/>
<path d="M91.1069 19.4667L87.8961 13.2364C87.4508 12.3394 86.9352 12 85.7869 12C84.6619 12 84.2635 12.3394 84.2635 12.8485C84.2635 13.3091 84.5916 13.7697 84.8729 14.3273L89.4663 22.6667V26.6909C89.4663 27.5636 89.9819 28 91.06 28C92.1381 28 92.6537 27.5636 92.6537 26.6909V22.6424L97.3409 14.2303C97.5987 13.7697 97.9033 13.3091 97.9033 12.8485C97.9033 12.3394 97.5284 12 96.4269 12C95.1613 12 94.7863 12.4364 94.3645 13.2364L91.1069 19.4667Z" fill="#2D3339"/>
<path d="M102.398 24.9455L108.445 15.5879C108.914 14.8848 109.289 14.2788 109.289 13.4788C109.289 12.5818 108.796 12.1212 107.812 12.1212H99.8438C99.0001 12.1212 98.5782 12.6061 98.5782 13.6C98.5782 14.5697 99.0001 15.0545 99.8438 15.0545H105.398L99.3516 24.4121C98.8829 25.1152 98.5079 25.7212 98.5079 26.5212C98.5079 27.4182 99.0001 27.8788 99.9844 27.8788H108.234C109.078 27.8788 109.499 27.3939 109.499 26.4C109.499 25.4303 109.078 24.9455 108.234 24.9455H102.398Z" fill="#2D3339"/>
<path d="M114.391 18.3515V14.9818H119.594C120.438 14.9818 120.859 14.5212 120.859 13.5515C120.859 12.5818 120.438 12.1212 119.594 12.1212H112.961C111.86 12.1212 111.368 12.6303 111.368 13.7697V26.2303C111.368 27.3697 111.86 27.8788 112.961 27.8788H119.734C120.578 27.8788 121 27.4182 121 26.4485C121 25.4788 120.578 25.0182 119.734 25.0182H114.391V21.2121H118.633C119.477 21.2121 119.898 20.7515 119.898 19.7818C119.898 18.8121 119.477 18.3515 118.633 18.3515H114.391Z" fill="#2D3339"/>
<g clip-path="url(#clip0_4498_81902)">
<path d="M13.7858 17.5344C10.8908 17.5344 8.5664 16.6663 6.86534 14.9512C4.24507 12.294 3.2519 7.79464 3.80132 1.18856C3.83301 0.754502 4.07602 0.352208 4.43525 0.108714C4.80505 -0.134779 5.25937 -0.187713 5.67143 -0.0500859C11.7255 1.98256 15.3601 4.63981 16.797 8.0699C17.8641 10.6319 17.6317 13.5326 16.0891 16.698C15.8672 17.1533 15.4129 17.4603 14.9058 17.492C14.5254 17.5238 14.145 17.5344 13.7858 17.5344ZM6.53781 3.30589C6.36876 7.94286 7.16118 11.1824 8.9045 12.9398C10.0667 14.1255 11.6938 14.6866 13.8703 14.676C14.7367 12.5904 14.8318 10.7801 14.1662 9.1815C13.2047 6.89477 10.6478 4.92565 6.53781 3.30589Z" fill="#B4D411"/>
<path d="M9.15895 32.938C6.80282 32.938 4.02407 32.0381 0.738168 30.2172C0.357806 30.0055 0.0936663 29.6243 0.0197071 29.1903C-0.0542521 28.7562 0.0831007 28.3116 0.378938 27.994C3.85502 24.2146 7.00357 22.4042 10.0465 22.4889C12.3286 22.5419 14.4206 23.6958 16.2485 25.8978C16.576 26.2895 16.6711 26.8295 16.4915 27.3059C15.53 29.9525 13.9769 31.6887 11.8849 32.4722C11.0502 32.7898 10.1416 32.938 9.15895 32.938ZM3.80219 28.5869C6.82395 30.0161 9.20121 30.4289 10.8917 29.7937C11.9905 29.3809 12.8463 28.5022 13.4908 27.1047C12.3709 25.9614 11.2087 25.3791 9.9725 25.3473C8.17635 25.305 6.11606 26.3954 3.80219 28.5869Z" fill="#B4D411"/>
<path d="M30.9026 30.7466C29.6876 30.7466 28.3986 30.4502 27.0251 29.8574C26.5602 29.6562 26.2326 29.2222 26.1693 28.714C25.8206 25.8662 26.4228 23.5583 27.9548 21.8538C29.9729 19.5989 33.4489 18.5296 38.5838 18.5826C39.017 18.5826 39.4291 18.7943 39.7038 19.1437C39.9679 19.493 40.063 19.9482 39.9573 20.3717C38.6366 25.538 36.6609 28.7034 33.935 30.0479C32.9946 30.5137 31.9803 30.7466 30.9026 30.7466ZM28.948 27.5283C30.4061 28.0153 31.6317 27.9941 32.6882 27.4754C34.3048 26.6814 35.636 24.6699 36.6714 21.4833C33.4912 21.6633 31.283 22.4255 30.0891 23.7594C29.2544 24.6911 28.8846 25.9297 28.948 27.5283Z" fill="#B4D411"/>
<path d="M28.4305 13.1621H26.3702V11.0977C26.3702 10.3037 25.7257 9.66846 24.9438 9.66846C24.1514 9.66846 23.5175 10.3037 23.5175 11.0977V13.1621H21.4466C20.6542 13.1621 20.0203 13.7973 20.0203 14.5913C20.0203 15.3853 20.6648 16.0205 21.4466 16.0205H23.5069V18.0849C23.5069 18.8789 24.1514 19.5141 24.9333 19.5141C25.7257 19.5141 26.3596 18.8789 26.3596 18.0849V16.0205H28.4199C29.2124 16.0205 29.8463 15.3853 29.8463 14.5913C29.8569 13.8078 29.2229 13.1621 28.4305 13.1621Z" fill="#F43460"/>
<path d="M15.8051 22.0761L27.6597 38.8772H31.1992L18.3937 20.7951C17.8443 19.8 17.39 19.5142 16.3757 19.5142C15.4459 19.5142 14.9705 19.7471 14.9705 20.2129C14.9705 20.6787 15.2874 21.208 15.7206 21.9279L15.8051 22.0761Z" fill="#2D3339"/>
</g>
<defs>
<clipPath id="clip0_4498_81902">
<rect width="40" height="40" fill="white"/>
</clipPath>
</defs>
</svg>
