<svg width="40" height="40" viewBox="0 0 40 40" fill="none" xmlns="http://www.w3.org/2000/svg">
<rect width="40" height="40" rx="20" fill="#E9FCFC"/>
<path d="M25.1374 23.8617C26.4499 22.4367 27.1249 20.5242 27.0124 18.5742L26.4124 10.5117C26.3374 9.34922 25.3624 8.44922 24.1999 8.44922H15.7624C14.5999 8.44922 13.6249 9.34922 13.5499 10.5117L13.2124 15.2367L12.9874 18.5742C12.8374 20.5242 13.5124 22.4367 14.8624 23.8617C16.0249 25.1367 17.6374 25.9242 19.3624 26.0742V30.2367H16.4374C16.0624 30.2367 15.7624 30.5367 15.7624 30.9117C15.7624 31.2867 16.0624 31.5867 16.4374 31.5867H23.5999C23.9749 31.5867 24.2749 31.2867 24.2749 30.9117C24.2749 30.5367 23.9749 30.2367 23.5999 30.2367H20.6749V26.0742C22.3624 25.9242 23.9749 25.1367 25.1374 23.8617ZM15.7624 9.79922H24.1999C24.6499 9.79922 25.0624 10.1742 25.0999 10.6242L25.3249 13.6617L23.5999 14.4867C22.5499 15.0117 21.2749 14.8992 20.2999 14.2992C19.0999 13.5117 17.5999 13.3242 16.2499 13.8117L14.5999 14.3742L14.8624 10.6242C14.8999 10.1367 15.3124 9.79922 15.7624 9.79922ZM14.2999 18.6492L14.5249 15.7617L16.6999 15.0117C17.6749 14.6742 18.7624 14.8242 19.6249 15.3867C20.3749 15.8742 21.2749 16.1367 22.1749 16.1367C22.8874 16.1367 23.5624 15.9867 24.1999 15.6867L25.4749 15.0867L25.7374 18.6867C25.8499 20.2992 25.3249 21.7992 24.2374 22.9992C23.1499 24.1992 21.6499 24.8367 20.0374 24.8367C18.4249 24.8367 16.9624 24.1992 15.8374 22.9992C14.7124 21.7992 14.1874 20.2617 14.2999 18.6492Z" fill="#0D5959"/>
</svg>
