<svg width="40" height="40" viewBox="0 0 40 40" fill="none" xmlns="http://www.w3.org/2000/svg">
<rect width="40" height="40" rx="20" fill="#E9FCFC"/>
<path d="M16.7748 22.2891H14.3748H13.0623H10.6998C9.4623 22.2891 8.4873 23.3016 8.4873 24.5016V25.4391C8.4873 26.6766 9.4998 27.6516 10.6998 27.6516H13.0998H14.3748H16.7748C18.0123 27.6516 18.9873 26.6391 18.9873 25.4391V24.5016C18.9873 23.3016 18.0123 22.2891 16.7748 22.2891ZM13.0623 26.3766H10.6998C10.2123 26.3766 9.7998 25.9641 9.7998 25.4766V24.5391C9.7998 24.0516 10.2123 23.6391 10.6998 23.6391H13.0998V26.3766H13.0623ZM17.6748 25.4391C17.6748 25.9266 17.2623 26.3391 16.7748 26.3391H14.3748V23.6016H16.7748C17.2623 23.6016 17.6748 24.0141 17.6748 24.5016V25.4391Z" fill="#0D5959"/>
<path d="M31.2499 18.4234L30.0499 15.9484C30.0124 15.8734 29.9749 15.8359 29.9374 15.7984V14.2609C29.9374 13.2859 29.1499 12.4609 28.1374 12.4609H24.3874C23.4124 12.4609 22.5874 13.2484 22.5874 14.2609V15.8734C22.5499 15.9109 22.5499 15.9109 22.5499 15.9484L21.3499 18.4234C21.1624 18.7609 21.0874 19.1734 21.0874 19.5859V25.9234C21.0874 27.0859 22.0249 28.0234 23.1874 28.0234H29.4124C30.5749 28.0234 31.5124 27.0859 31.5124 25.9234V19.5484C31.5499 19.1734 31.4374 18.7609 31.2499 18.4234ZM22.3624 20.5609H30.1999V23.3359H22.3624V20.5609ZM23.8999 14.2234C23.8999 13.9609 24.1249 13.7359 24.3874 13.7359H28.1749C28.4374 13.7359 28.6624 13.9609 28.6624 14.2234V15.5359H23.8999V14.2234ZM23.5249 16.8859H29.0374L30.0499 18.9859C30.0874 19.0609 30.1249 19.1359 30.1249 19.2484H22.4374C22.4749 19.1734 22.4749 19.0609 22.5124 18.9859L23.5249 16.8859ZM29.4124 26.7109H23.1874C22.7374 26.7109 22.3999 26.3359 22.3999 25.9234V24.6484H30.2374V25.9234C30.2374 26.3359 29.8624 26.7109 29.4124 26.7109Z" fill="#0D5959"/>
<path d="M13.8124 18.3875C14.6374 18.3875 15.4624 18.0875 16.0999 17.45C17.3374 16.2125 17.3374 14.15 16.0999 12.9125C14.8624 11.675 12.7999 11.675 11.5624 12.9125C10.3249 14.15 10.3249 16.2125 11.5624 17.45C12.1624 18.0875 12.9874 18.3875 13.8124 18.3875ZM15.1624 16.55C14.5999 17.1125 13.7374 17.2625 13.0249 16.925L15.5374 14.4125C15.8374 15.0875 15.7249 15.95 15.1624 16.55ZM12.4624 13.85C12.8374 13.475 13.3249 13.2875 13.8124 13.2875C14.0749 13.2875 14.3374 13.3625 14.5999 13.475L12.0874 15.9875C11.7499 15.275 11.8999 14.4125 12.4624 13.85Z" fill="#0D5959"/>
</svg>
