<svg width="40" height="40" viewBox="0 0 40 40" fill="none" xmlns="http://www.w3.org/2000/svg">
<rect width="40" height="40" rx="20" fill="#F7FCD9"/>
<path d="M29.3752 11.8992H27.0877V10.8117C27.0877 10.4367 26.7877 10.1367 26.4127 10.1367C26.0377 10.1367 25.7377 10.4367 25.7377 10.8117V11.8992H14.2252V10.8117C14.2252 10.4367 13.9252 10.1367 13.5502 10.1367C13.1752 10.1367 12.8752 10.4367 12.8752 10.8117V11.8992H10.6252C9.4252 11.8992 8.4502 12.8742 8.4502 14.0742V27.6867C8.4502 28.8867 9.4252 29.8617 10.6252 29.8617H29.3752C30.5752 29.8617 31.5502 28.8867 31.5502 27.6867V14.0742C31.5502 12.8742 30.5752 11.8992 29.3752 11.8992ZM9.8002 18.6867H13.5502V22.9617H9.8002V18.6867ZM14.8252 18.6867H19.3252V22.9617H14.8252V18.6867ZM19.3627 24.2742V28.5117H14.8627V24.2742H19.3627ZM20.6752 24.2742H25.1752V28.5117H20.6752V24.2742ZM20.6752 22.9617V18.6867H25.1752V22.9617H20.6752ZM26.4877 18.6867H30.2377V22.9617H26.4877V18.6867ZM10.6252 13.2117H12.9127V14.2617C12.9127 14.6367 13.2127 14.9367 13.5877 14.9367C13.9627 14.9367 14.2627 14.6367 14.2627 14.2617V13.2117H25.8127V14.2617C25.8127 14.6367 26.1127 14.9367 26.4877 14.9367C26.8627 14.9367 27.1627 14.6367 27.1627 14.2617V13.2117H29.3752C29.8252 13.2117 30.2377 13.5867 30.2377 14.0742V17.3742H9.8002V14.0742C9.8002 13.5867 10.1752 13.2117 10.6252 13.2117ZM9.8002 27.6867V24.2742H13.5502V28.5117H10.6252C10.1752 28.5117 9.8002 28.1367 9.8002 27.6867ZM29.3752 28.5117H26.4877V24.2742H30.2377V27.6867C30.2377 28.1367 29.8252 28.5117 29.3752 28.5117Z" fill="#718E0B"/>
</svg>
