<svg width="40" height="40" viewBox="0 0 40 40" fill="none" xmlns="http://www.w3.org/2000/svg">
<rect width="40" height="40" rx="20" fill="#E9FCFC"/>
<path d="M16.2875 18.1617C18.4625 18.1617 20.075 17.1492 20.075 15.8367C20.075 14.5242 18.425 13.5117 16.2875 13.5117C14.15 13.5117 12.5 14.5242 12.5 15.8367C12.5 17.1867 14.1125 18.1617 16.2875 18.1617ZM16.2875 14.8617C17.7875 14.8617 18.7625 15.4617 18.7625 15.8742C18.7625 16.2867 17.7875 16.8867 16.2875 16.8867C14.7875 16.8867 13.8125 16.2867 13.8125 15.8742C13.8125 15.4617 14.7875 14.8617 16.2875 14.8617Z" fill="#0D5959"/>
<path d="M29.1499 20.0359H21.3499C23.0374 19.0234 24.1249 17.5234 24.1249 15.8734C24.1249 12.8359 20.5999 10.3984 16.3249 10.3984C12.1249 10.3984 8.6749 12.7609 8.5249 15.6859V20.8984C8.5249 25.7359 12.4624 29.6734 17.2999 29.6734H29.1874C30.4999 29.6734 31.5874 28.5859 31.5874 27.2734V22.4359C31.5499 21.0859 30.4624 20.0359 29.1499 20.0359ZM16.2874 11.6734C19.8874 11.6734 22.7749 13.5484 22.7749 15.8359C22.7749 18.1234 19.8499 19.9984 16.2874 19.9984C12.7249 19.9984 9.7999 18.1234 9.7999 15.8359C9.7999 13.5484 12.6874 11.6734 16.2874 11.6734ZM30.2374 27.2359C30.2374 27.8359 29.7499 28.3234 29.1499 28.3234H27.4999V26.8984C27.4999 26.5234 27.1999 26.2234 26.8249 26.2234C26.4499 26.2234 26.1499 26.5234 26.1499 26.8984V28.3234H22.8124V26.8984C22.8124 26.5234 22.5124 26.2234 22.1374 26.2234C21.7624 26.2234 21.4999 26.5234 21.4999 26.8984V28.3234H18.1624V26.8984C18.1624 26.5234 17.8624 26.2234 17.4874 26.2234C17.1124 26.2234 16.8124 26.5234 16.8124 26.8984V28.3234C12.9499 28.0984 9.7999 24.8359 9.7999 20.8609V18.8734C11.1874 20.3359 13.5874 21.3109 16.2874 21.3109H29.1499C29.7499 21.3109 30.2374 21.7984 30.2374 22.3984V27.2359Z" fill="#0D5959"/>
</svg>
