<svg width="20" height="20" viewBox="0 0 20 20" fill="none" xmlns="http://www.w3.org/2000/svg">
<path d="M1.71875 5.56062H14.0625C14.375 5.56062 14.625 5.31062 14.625 4.99812C14.625 4.68562 14.375 4.46687 14.0625 4.46687H1.71875L4.125 1.59187C4.3125 1.37312 4.28125 1.02937 4.0625 0.810616C3.84375 0.623116 3.5 0.654366 3.28125 0.873116L0.84375 3.77937C0.25 4.46687 0.25 5.49812 0.84375 6.18562L3.28125 9.09187C3.375 9.21687 3.53125 9.27937 3.6875 9.27937C3.8125 9.27937 3.9375 9.24812 4.03125 9.15437C4.25 8.96687 4.28125 8.62312 4.09375 8.37312L1.71875 5.56062Z" fill="#2D3339"/>
<path d="M19.1563 13.8106L16.7188 10.9044C16.5313 10.6856 16.1875 10.6544 15.9375 10.8419C15.7188 11.0294 15.6875 11.3731 15.875 11.6231L18.2813 14.4981H5.9375C5.625 14.4981 5.375 14.7481 5.375 15.0606C5.375 15.3731 5.625 15.6231 5.9375 15.6231H18.2813L15.875 18.4981C15.6875 18.7169 15.7188 19.0606 15.9375 19.2794C16.0313 19.3731 16.1562 19.4044 16.2812 19.4044C16.4375 19.4044 16.5938 19.3419 16.6875 19.2169L19.125 16.3106C19.75 15.4981 19.75 14.4981 19.1563 13.8106Z" fill="#2D3339"/>
</svg>
