<svg width="32" height="32" viewBox="0 0 32 32" fill="none" xmlns="http://www.w3.org/2000/svg">
<g clip-path="url(#clip0_359_166740)">
<path d="M19.25 10.4063H21.5938V12.75C21.5938 13.0625 21.8438 13.3125 22.1563 13.3125C22.4688 13.3125 22.7188 13.0625 22.7188 12.75V10.4063H25.0625C25.375 10.4063 25.625 10.1563 25.625 9.84375C25.625 9.53125 25.375 9.28125 25.0625 9.28125H22.7188V6.96875C22.7188 6.65625 22.4688 6.40625 22.1563 6.40625C21.8438 6.40625 21.5938 6.65625 21.5938 6.96875V9.3125H19.25C18.9375 9.3125 18.6875 9.5625 18.6875 9.875C18.6875 10.1875 18.9375 10.4063 19.25 10.4063Z" fill="#2D3339" fill-opacity="0.45"/>
<path d="M25.0313 20.1559L22.1876 18.2497C21.5626 17.8434 20.7813 18.0309 20.3126 18.7184L19.5626 19.7497C19.5001 19.8434 19.3751 19.8747 19.3126 19.8122C15.4688 17.4059 13.0626 14.0309 12.2188 12.7184C12.1563 12.6247 12.1876 12.4997 12.2813 12.4372L13.4376 11.6247C14.0313 11.2184 14.1563 10.4059 13.7813 9.84343L11.8751 6.99968C11.5001 6.43718 10.7188 6.24968 10.1251 6.59343L7.37507 8.18718C7.31257 8.21843 7.28132 8.21843 7.25007 8.28093C5.12507 10.3747 7.09382 15.6559 11.7188 20.2809C13.8751 22.4372 16.2501 24.0934 18.4376 24.9684C19.5313 25.4059 20.5001 25.6247 21.3438 25.6247C22.3126 25.6247 23.1251 25.3434 23.7188 24.7497C23.7501 24.7184 23.7813 24.6872 23.8126 24.6559L25.4376 21.9372C25.7813 21.3122 25.5938 20.5309 25.0313 20.1559ZM24.4688 21.3434L22.9063 23.9997C22.1563 24.6872 20.6876 24.6559 18.8438 23.9372C16.7813 23.1247 14.5313 21.5309 12.4688 19.4997C8.06257 15.0934 6.59382 10.5934 7.96882 9.09343L10.6251 7.53093C10.7188 7.46843 10.8438 7.49968 10.9063 7.59343L12.8126 10.4372C12.8751 10.5309 12.8438 10.6559 12.7501 10.7184L11.6251 11.5309C11.0626 11.9372 10.9063 12.6872 11.2813 13.2809C12.1876 14.6872 14.6876 18.1872 18.7188 20.7184C19.3126 21.0934 20.0626 20.9372 20.4688 20.3434L21.1876 19.3122C21.2501 19.2497 21.4063 19.0309 21.5626 19.1247L24.4063 21.0309C24.5001 21.1247 24.5313 21.2497 24.4688 21.3434Z" fill="#2D3339" fill-opacity="0.45"/>
</g>
<defs>
<clipPath id="clip0_359_166740">
<rect width="20" height="20" fill="white" transform="translate(6 6)"/>
</clipPath>
</defs>
</svg>
