<svg width="15" height="20" viewBox="0 0 15 20" fill="none" xmlns="http://www.w3.org/2000/svg">
<path d="M13.5 2.6875H10.8125V1.90625C10.8125 1.0625 10.125 0.375 9.28125 0.375H6.71875C5.875 0.375 5.1875 1.0625 5.1875 1.90625V2.6875H2.46875C1.65625 2.6875 0.96875 3.34375 0.96875 4.1875V5.21875C0.96875 5.875 1.40625 6.4375 2 6.625L2.5 17.4375C2.5625 18.6875 3.5625 19.6563 4.8125 19.6563H11.0938C12.3438 19.6563 13.3438 18.6875 13.4063 17.4375L13.9063 6.625C14.5 6.4375 14.9375 5.875 14.9375 5.21875V4.1875C15 3.34375 14.3125 2.6875 13.5 2.6875ZM6.28125 1.90625C6.28125 1.6875 6.46875 1.46875 6.71875 1.46875H9.28125C9.5 1.46875 9.71875 1.65625 9.71875 1.90625V2.6875H6.28125V1.90625ZM2.09375 4.15625C2.09375 3.9375 2.28125 3.75 2.5 3.75H5.75H10.25H13.5C13.7188 3.75 13.9063 3.9375 13.9063 4.15625V5.1875C13.9063 5.40625 13.7188 5.59375 13.5 5.59375H2.5C2.28125 5.59375 2.09375 5.40625 2.09375 5.1875V4.15625ZM12.375 17.3437C12.3438 18 11.8125 18.5 11.1563 18.5H4.84375C4.1875 18.5 3.65625 18 3.625 17.3437L3.125 6.65625H12.875L12.375 17.3437Z" fill="#2D3339"/>
<path d="M8 10.3125C7.6875 10.3125 7.4375 10.5625 7.4375 10.875V15C7.4375 15.3125 7.6875 15.5625 8 15.5625C8.3125 15.5625 8.5625 15.3125 8.5625 15V10.875C8.5625 10.5625 8.3125 10.3125 8 10.3125Z" fill="#2D3339"/>
<path d="M10.5622 10.9362C10.2497 10.905 9.99972 11.155 9.96847 11.4362L9.78097 14.28C9.74972 14.5925 9.99972 14.8425 10.281 14.8737H10.3122C10.5935 14.8737 10.8435 14.655 10.8435 14.3737L11.031 11.53C11.0935 11.2487 10.8747 10.9675 10.5622 10.9362Z" fill="#2D3339"/>
<path d="M5.40629 10.9375C5.09379 10.9688 4.87504 11.2188 4.90629 11.5313L5.12504 14.375C5.15629 14.6563 5.37504 14.875 5.65629 14.875H5.68754C6.00004 14.8438 6.21879 14.5938 6.18754 14.2813L5.96879 11.4375C5.96879 11.1562 5.71879 10.9375 5.40629 10.9375Z" fill="#2D3339"/>
</svg>
