<svg width="40" height="40" viewBox="0 0 40 40" fill="none" xmlns="http://www.w3.org/2000/svg">
<rect width="40" height="40" rx="20" fill="#FFF7E0"/>
<path d="M20.375 29.2242C19.925 29.2617 19.5125 29.2617 19.1 29.2617C15.9125 29.2617 12.875 28.0242 11.6 27.4242C11.7125 24.9867 12.5 22.8117 13.85 21.2367C15.2375 19.5867 17.1125 18.6867 19.1 18.6867C20.6375 18.6867 22.0625 19.2117 23.3 20.1867C23.6 20.4117 24.0125 20.3742 24.2375 20.0742C24.4625 19.7742 24.425 19.3617 24.125 19.1367C23.15 18.3492 22.0625 17.8242 20.9 17.5617C22.625 16.8492 23.8625 15.1617 23.8625 13.1742C23.8625 10.5492 21.725 8.44922 19.1375 8.44922C16.5125 8.44922 14.4125 10.5867 14.4125 13.1742C14.4125 15.1617 15.6125 16.8492 17.3375 17.5617C15.65 17.9742 14.1125 18.9117 12.875 20.3742C11.225 22.2867 10.325 24.9492 10.25 27.8367C10.25 28.0992 10.4 28.3242 10.625 28.4367C11.6375 28.9242 15.2375 30.5742 19.1 30.5742C19.55 30.5742 20.0375 30.5367 20.4875 30.4992C20.8625 30.4617 21.125 30.1617 21.0875 29.7867C21.05 29.4492 20.75 29.1867 20.375 29.2242ZM15.65 13.2117C15.65 11.3367 17.1875 9.79922 19.0625 9.79922C20.9375 9.79922 22.475 11.3367 22.475 13.2117C22.475 15.0867 20.9375 16.6242 19.0625 16.6242C17.1875 16.6242 15.65 15.0867 15.65 13.2117Z" fill="#FABB00"/>
<path d="M29.6374 30.4988L28.0999 28.3613C28.7374 27.7238 29.1499 26.9363 29.2624 26.0738C29.4499 24.9863 29.1874 23.8613 28.5124 22.9613C27.8749 22.0613 26.8999 21.4613 25.7749 21.2738C24.6874 21.0863 23.5624 21.3488 22.6624 22.0238C20.7874 23.3738 20.3749 25.9988 21.7249 27.8738C22.5499 28.9988 23.8249 29.5988 25.1374 29.5988C25.7749 29.5988 26.4124 29.4488 27.0124 29.1488L28.5499 31.2863C28.6624 31.4738 28.8874 31.5488 29.0749 31.5488C29.2249 31.5488 29.3374 31.5113 29.4499 31.4363C29.7499 31.2113 29.8249 30.7988 29.6374 30.4988ZM22.7749 27.0863C22.3249 26.4488 22.1374 25.6988 22.2499 24.9488C22.3624 24.1988 22.7749 23.5238 23.4124 23.0738C23.8999 22.6988 24.4999 22.5113 25.0999 22.5113C25.2499 22.5113 25.3999 22.5113 25.5499 22.5488C26.2999 22.6613 26.9749 23.0738 27.4249 23.7113C27.8749 24.3488 28.0624 25.0988 27.9499 25.8488C27.8374 26.5988 27.4249 27.2738 26.7874 27.7238C25.5124 28.6613 23.7124 28.3613 22.7749 27.0863Z" fill="#FABB00"/>
</svg>
