<svg width="20" height="20" viewBox="0 0 20 20" fill="none" xmlns="http://www.w3.org/2000/svg">
<path d="M17.8125 7.25H10.9375V2.6875C10.9375 1.4375 9.90625 0.40625 8.65625 0.40625H2.6875C1.4375 0.40625 0.40625 1.4375 0.40625 2.6875V9.75C0.40625 11 1.4375 12.0313 2.6875 12.0313H8.4375V17.8125C8.4375 18.8125 9.25 19.625 10.25 19.625H17.8125C18.8125 19.625 19.625 18.8125 19.625 17.8125V9.0625C19.625 8.0625 18.8125 7.25 17.8125 7.25ZM2.6875 10.9375C2.03125 10.9375 1.5 10.4063 1.5 9.75V2.6875C1.5 2.03125 2.03125 1.5 2.6875 1.5H8.65625C9.3125 1.5 9.84375 2.03125 9.84375 2.6875V7.3125C9.03125 7.5 8.4375 8.21875 8.4375 9.0625V10.9375H2.6875ZM18.5312 17.8125C18.5312 18.1875 18.2188 18.5312 17.8125 18.5312H10.25C9.875 18.5312 9.53125 18.2188 9.53125 17.8125V9.0625C9.53125 8.6875 9.84375 8.34375 10.25 8.34375H17.8125C18.1875 8.34375 18.5312 8.65625 18.5312 9.0625V17.8125Z" fill="#2D3339"/>
<path d="M16.125 10H11.9375C11.625 10 11.375 10.25 11.375 10.5625C11.375 10.875 11.625 11.125 11.9375 11.125H16.125C16.4375 11.125 16.6875 10.875 16.6875 10.5625C16.6875 10.2187 16.4375 10 16.125 10Z" fill="#2D3339"/>
<path d="M16.125 12.9062H11.9375C11.625 12.9062 11.375 13.1562 11.375 13.4687C11.375 13.7812 11.625 14.0313 11.9375 14.0313H16.125C16.4375 14.0313 16.6875 13.7812 16.6875 13.4687C16.6875 13.1562 16.4375 12.9062 16.125 12.9062Z" fill="#2D3339"/>
<path d="M16.125 15.8438H11.9375C11.625 15.8438 11.375 16.0937 11.375 16.4062C11.375 16.7187 11.625 16.9687 11.9375 16.9687H16.125C16.4375 16.9687 16.6875 16.7187 16.6875 16.4062C16.6875 16.0937 16.4375 15.8438 16.125 15.8438Z" fill="#2D3339"/>
</svg>
