<svg width="312" height="184" viewBox="0 0 312 184" fill="none" xmlns="http://www.w3.org/2000/svg">
<g style="mix-blend-mode:multiply">
<path d="M297.634 62.2256L243.023 9.8616C238.516 5.54007 231.017 7.81735 229.674 13.9153L218.141 66.2793C217.041 71.2714 220.842 76 225.954 76H292.098C299.306 76 302.838 67.2146 297.634 62.2256Z" fill="url(#paint0_linear_285_134871)"/>
<rect x="80" y="128" width="56" height="56" rx="8" fill="url(#paint1_linear_285_134871)"/>
<circle cx="200" cy="120" r="24" fill="url(#paint2_linear_285_134871)"/>
<path fill-rule="evenodd" clip-rule="evenodd" d="M31.9967 32C26.1057 32 21.3301 36.7756 21.3301 42.6667V53.3303H10.6667C4.77563 53.3303 0 58.106 0 63.997C0 69.8881 4.77563 74.6637 10.6667 74.6637H21.3301V85.3333C21.3301 91.2244 26.1057 96 31.9967 96C37.8878 96 42.6634 91.2244 42.6634 85.3333V74.6637H53.3333C59.2244 74.6637 64 69.888 64 63.997C64 58.106 59.2244 53.3303 53.3333 53.3303H42.6634V42.6667C42.6634 36.7756 37.8878 32 31.9967 32Z" fill="url(#paint3_linear_285_134871)"/>
</g>
<defs>
<linearGradient id="paint0_linear_285_134871" x1="264" y1="0" x2="264" y2="76" gradientUnits="userSpaceOnUse">
<stop stop-color="#6B7280" stop-opacity="0.08"/>
<stop offset="1" stop-color="#6B7280" stop-opacity="0.02"/>
</linearGradient>
<linearGradient id="paint1_linear_285_134871" x1="108" y1="128" x2="108" y2="184" gradientUnits="userSpaceOnUse">
<stop stop-color="#6B7280" stop-opacity="0.08"/>
<stop offset="1" stop-color="#6B7280" stop-opacity="0.02"/>
</linearGradient>
<linearGradient id="paint2_linear_285_134871" x1="200" y1="96" x2="200" y2="144" gradientUnits="userSpaceOnUse">
<stop stop-color="#6B7280" stop-opacity="0.08"/>
<stop offset="1" stop-color="#6B7280" stop-opacity="0.02"/>
</linearGradient>
<linearGradient id="paint3_linear_285_134871" x1="32" y1="32" x2="32" y2="96" gradientUnits="userSpaceOnUse">
<stop stop-color="#6B7280" stop-opacity="0.08"/>
<stop offset="1" stop-color="#6B7280" stop-opacity="0.02"/>
</linearGradient>
</defs>
</svg>
