<svg width="20" height="20" viewBox="0 0 20 20" fill="none" xmlns="http://www.w3.org/2000/svg">
<g clip-path="url(#clip0_2476_97599)">
<path d="M18.1875 4.03125H10.2813L9.375 1.375C9.1875 0.78125 8.625 0.40625 8 0.40625H1.8125C1.03125 0.40625 0.375 1.0625 0.375 1.84375V18.1875C0.375 18.9688 1.03125 19.625 1.8125 19.625H18.2187C19 19.625 19.6563 18.9688 19.6563 18.1875V5.46875C19.6563 4.65625 19 4.03125 18.1875 4.03125ZM18.5625 18.1562C18.5625 18.3437 18.4062 18.5 18.2187 18.5H1.8125C1.625 18.5 1.46875 18.3437 1.46875 18.1562V1.84375C1.46875 1.65625 1.625 1.5 1.8125 1.5H8C8.15625 1.5 8.28125 1.59375 8.34375 1.75L9.375 4.78125C9.4375 5 9.65625 5.15625 9.90625 5.15625H18.2187C18.4062 5.15625 18.5625 5.3125 18.5625 5.5V18.1562V18.1562Z" fill="#0D5959"/>
<path d="M11.2499 12.375L10.5311 13.1562V9.09375C10.5311 8.78125 10.2811 8.53125 9.96861 8.53125C9.65611 8.53125 9.40611 8.78125 9.40611 9.09375V13.125L8.71861 12.375C8.49986 12.1562 8.15611 12.125 7.93736 12.3437C7.71861 12.5625 7.68736 12.9062 7.90611 13.125L9.56236 14.9062C9.65611 15.0312 9.81236 15.0937 9.96861 15.0937C10.1249 15.0937 10.2811 15.0312 10.3749 14.9062L12.0311 13.125C12.2499 12.9062 12.2186 12.5625 11.9999 12.3437C11.8124 12.125 11.4686 12.1562 11.2499 12.375Z" fill="#0D5959"/>
</g>
<defs>
<clipPath id="clip0_2476_97599">
<rect width="20" height="20" fill="white"/>
</clipPath>
</defs>
</svg>
