<svg width="20" height="13" viewBox="0 0 20 13" fill="none" xmlns="http://www.w3.org/2000/svg">
<path d="M9.59375 4.375C8.375 4.375 7.40625 5.375 7.40625 6.5625C7.40625 7.75 8.40625 8.75 9.59375 8.75C10.7812 8.75 11.7812 7.75 11.7812 6.5625C11.7812 5.375 10.8125 4.375 9.59375 4.375ZM9.59375 7.65625C9 7.65625 8.5 7.15625 8.5 6.5625C8.5 5.96875 9 5.46875 9.59375 5.46875C10.1876 5.46875 10.6875 5.96875 10.6875 6.5625C10.6875 7.15625 10.1876 7.65625 9.59375 7.65625Z" fill="black"/>
<path d="M19.0938 6.1875C17.0312 2.9375 13.4688 1 9.59375 1C5.71875 1 2.15625 2.9375 0.09375 6.1875C-0.03125 6.40625 -0.03125 6.6875 0.09375 6.90625C2.15625 10.1563 5.71875 12.0938 9.59375 12.0938C13.4688 12.0938 17.0312 10.1563 19.0938 6.90625C19.25 6.6875 19.25 6.40625 19.0938 6.1875ZM9.59375 11C6.1875 11 3.03125 9.34375 1.15625 6.53125C3.03125 3.75 6.1875 2.09375 9.59375 2.09375C13.0001 2.09375 16.1562 3.75 18.0312 6.53125C16.1562 9.34375 13.0001 11 9.59375 11Z" fill="black"/>
<path d="M4 1L15 12" stroke="black" stroke-linecap="round"/>
</svg>