<svg width="40" height="40" viewBox="0 0 40 40" fill="none" xmlns="http://www.w3.org/2000/svg">
<rect width="40" height="40" rx="20" fill="#FFF7E0"/>
<path d="M26.1875 12.1633H24.95C24.8375 11.3758 24.1625 10.7758 23.375 10.7758H22.775C22.55 9.46328 21.3875 8.48828 20.0375 8.48828C18.65 8.48828 17.525 9.50078 17.3 10.7758H16.625C15.8 10.7758 15.125 11.3758 15.0125 12.1633H13.775C12.6125 12.1633 11.6375 13.1383 11.6375 14.3008V29.4133C11.6375 30.5758 12.6125 31.5508 13.775 31.5508H26.1875C27.35 31.5508 28.325 30.5758 28.325 29.4133V14.3008C28.325 13.1383 27.3875 12.1633 26.1875 12.1633ZM16.325 12.4258C16.325 12.2383 16.475 12.0883 16.6625 12.0883H17.9C18.275 12.0883 18.575 11.7883 18.575 11.4133V11.2633C18.575 10.4383 19.25 9.80078 20.0375 9.80078C20.8625 9.80078 21.5 10.4758 21.5 11.2633V11.4508C21.5 11.8258 21.8 12.1258 22.175 12.1258H23.375C23.5625 12.1258 23.7125 12.2758 23.7125 12.4633V13.3633C23.7125 13.5508 23.5625 13.7008 23.375 13.7008H16.625C16.4375 13.7008 16.2875 13.5508 16.2875 13.3633V12.4258H16.325ZM27.0125 29.4133C27.0125 29.8633 26.6375 30.2383 26.1875 30.2383H13.8125C13.3625 30.2383 12.9875 29.8633 12.9875 29.4133V14.3008C12.9875 13.8508 13.3625 13.4758 13.8125 13.4758H15.0125C15.0875 14.3008 15.8 14.9758 16.625 14.9758H23.375C24.2375 14.9758 24.9125 14.3008 24.9875 13.4758H26.1875C26.6375 13.4758 27.0125 13.8508 27.0125 14.3008V29.4133Z" fill="#FABB00"/>
<path d="M21.6124 21.8H20.6749V20.8625C20.6749 20.4875 20.3749 20.1875 19.9999 20.1875C19.6249 20.1875 19.3249 20.4875 19.3249 20.8625V21.8H18.3874C18.0124 21.8 17.7124 22.1 17.7124 22.475C17.7124 22.85 18.0124 23.15 18.3874 23.15H19.3249V24.0875C19.3249 24.4625 19.6249 24.7625 19.9999 24.7625C20.3749 24.7625 20.6749 24.4625 20.6749 24.0875V23.15H21.6124C21.9874 23.15 22.2874 22.85 22.2874 22.475C22.2874 22.1 21.9499 21.8 21.6124 21.8Z" fill="#FABB00"/>
<path d="M20 17.4492C17.225 17.4492 15.0125 19.6992 15.0125 22.4367C15.0125 25.1742 17.2625 27.4242 20 27.4242C22.775 27.4242 24.9874 25.1742 24.9874 22.4367C24.9874 19.6992 22.775 17.4492 20 17.4492ZM20 26.1492C17.975 26.1492 16.325 24.4992 16.325 22.4742C16.325 20.4492 17.975 18.7992 20 18.7992C22.025 18.7992 23.6749 20.4492 23.6749 22.4742C23.6749 24.4992 22.025 26.1492 20 26.1492Z" fill="#FABB00"/>
</svg>
