<svg width="32" height="32" viewBox="0 0 32 32" fill="none" xmlns="http://www.w3.org/2000/svg">
<path d="M9 13.6562H8C7.09375 13.6562 6.375 14.375 6.375 15.2813V22.4688C6.375 23.375 7.09375 24.0938 8 24.0938H8.96875C9.875 24.0938 10.5938 23.375 10.5938 22.4688V15.2813C10.625 14.375 9.90625 13.6562 9 13.6562ZM9.53125 22.4688C9.53125 22.75 9.28125 23 9 23H8C7.71875 23 7.46875 22.75 7.46875 22.4688V15.2813C7.46875 15 7.71875 14.75 8 14.75H8.96875C9.25 14.75 9.5 15 9.5 15.2813V22.4688H9.53125Z" fill="#2D3339" fill-opacity="0.45"/>
<path d="M25.5625 14.9067C25.5312 14.7817 25.5313 14.6567 25.5 14.563C25.3125 13.9067 24.9062 13.4067 24.375 13.1255C23.8438 12.8755 23.3125 12.8755 22.8438 12.8755H19.1875L19.7188 10.438C19.8125 10.063 19.9062 9.59422 19.7812 9.09422C19.5312 8.25048 18.625 7.71923 17.7812 7.93798C17.25 8.06298 16.8437 8.46923 16.5625 8.75048C16.4062 8.90673 16.1562 9.15673 15.8125 9.46923C12.7812 12.438 12.1875 13.063 12.0938 13.3755C11.9375 13.7817 11.9375 14.188 11.9375 14.5942V21.438C11.9375 21.9692 11.9375 22.8755 12.5312 23.4692C13.125 24.063 14 24.0942 14.5625 24.0942C14.5938 24.0942 14.5938 24.0942 14.625 24.0942H20.8125C21.1875 24.0942 21.6875 24.0942 22.125 23.8442C22.75 23.5005 23.0312 22.8442 23.2188 22.4067C24.6875 19.0005 25.4688 16.9067 25.5938 16.188C25.625 15.7192 25.625 15.2817 25.5625 14.9067ZM24.4688 16.0317C24.4062 16.3755 24.0312 17.6567 22.1875 22.0005C22.0312 22.4067 21.8438 22.7505 21.5938 22.9067C21.4062 23.0005 21.0938 23.0005 20.8125 23.0005H14.625C14.0938 23.0005 13.5937 22.9692 13.3125 22.7192C13.0625 22.4692 13.0312 21.938 13.0312 21.438V14.5942C13.0312 14.2817 13.0312 14.0317 13.125 13.813C13.4062 13.3755 15.6562 11.2192 16.625 10.2817C16.9375 9.96922 17.2188 9.71922 17.375 9.56297C17.5938 9.34422 17.8438 9.09423 18.0938 9.03173C18.3438 8.96923 18.6875 9.15673 18.7813 9.43797C18.8438 9.65672 18.7813 9.96922 18.7188 10.2505L18.0312 13.3755C18 13.5317 18.0312 13.7192 18.125 13.8442C18.2188 13.9692 18.375 14.063 18.5625 14.0317L22.875 13.9692C23.25 13.9692 23.625 13.9692 23.875 14.0942C24.125 14.2192 24.3438 14.5005 24.4375 14.8442C24.4688 14.9067 24.4688 15.0005 24.5 15.063C24.5312 15.3442 24.5312 15.6567 24.4688 16.0317Z" fill="#2D3339" fill-opacity="0.45"/>
</svg>
