<svg width="14" height="15" viewBox="0 0 14 8" fill="none" xmlns="http://www.w3.org/2000/svg">
<path d="M1.59967 3.99935C1.59967 2.85935 2.52634 1.93268 3.66634 1.93268H6.33301V0.666016H3.66634C1.82634 0.666016 0.333008 2.15935 0.333008 3.99935C0.333008 5.83935 1.82634 7.33268 3.66634 7.33268H6.33301V6.06602H3.66634C2.52634 6.06602 1.59967 5.13935 1.59967 3.99935ZM4.33301 4.66602H9.66634V3.33268H4.33301V4.66602ZM10.333 0.666016H7.66634V1.93268H10.333C11.473 1.93268 12.3997 2.85935 12.3997 3.99935C12.3997 5.13935 11.473 6.06602 10.333 6.06602H7.66634V7.33268H10.333C12.173 7.33268 13.6663 5.83935 13.6663 3.99935C13.6663 2.15935 12.173 0.666016 10.333 0.666016Z" fill="#6C757F"/>
</svg>
