<svg width="24" height="20" viewBox="0 0 24 20" fill="none" xmlns="http://www.w3.org/2000/svg">
<path d="M16.2752 1.33594C15.4502 1.33594 14.6627 1.48594 13.9127 1.74844C12.4877 0.660937 10.7252 0.0234375 8.81269 0.0234375C4.20019 0.0234375 0.450195 3.77344 0.450195 8.38594C0.450195 12.8859 8.06269 19.5609 8.36269 19.8234C8.47519 19.9359 8.62519 19.9734 8.77519 19.9734C8.92519 19.9734 9.07519 19.9359 9.18769 19.8234C9.33769 19.6734 11.2127 18.0234 13.1252 15.8484C14.5127 17.3484 15.7502 18.4359 15.7877 18.4734C15.9002 18.5859 16.0502 18.6234 16.2002 18.6234C16.3502 18.6234 16.5002 18.5859 16.6127 18.4734C16.8752 18.2484 23.4377 12.4734 23.4377 8.57344C23.5502 4.59844 20.2877 1.33594 16.2752 1.33594ZM8.81269 18.4359C6.52519 16.3359 1.8002 11.3859 1.8002 8.38594C1.8002 4.52344 4.95019 1.33594 8.85019 1.33594C12.7502 1.33594 15.9002 4.48594 15.9002 8.38594C15.8627 11.3859 11.1377 16.3359 8.81269 18.4359ZM16.2752 17.1234C15.7877 16.6734 14.9252 15.8484 14.0252 14.8734C15.7127 12.7734 17.1752 10.3734 17.1752 8.38594C17.1752 6.24844 16.3502 4.29844 15.0377 2.79844C15.4502 2.72344 15.8627 2.64844 16.2752 2.64844C19.5377 2.64844 22.2002 5.31094 22.2002 8.57344C22.2377 11.1609 18.2627 15.2859 16.2752 17.1234Z" fill="#0D5959"/>
<path d="M8.81231 4.48438C6.7123 4.48438 4.9873 6.20938 4.9873 8.30938C4.9873 10.4094 6.7123 12.1344 8.81231 12.1344C10.9123 12.1344 12.6373 10.4094 12.6373 8.30938C12.6373 6.20938 10.9123 4.48438 8.81231 4.48438ZM8.81231 10.8219C7.4248 10.8219 6.2998 9.69688 6.2998 8.30938C6.2998 6.92188 7.4248 5.79688 8.81231 5.79688C10.1998 5.79688 11.3248 6.92188 11.3248 8.30938C11.3248 9.69688 10.1998 10.8219 8.81231 10.8219Z" fill="#0D5959"/>
</svg>
