<svg width="40" height="40" viewBox="0 0 40 40" fill="none" xmlns="http://www.w3.org/2000/svg">
<rect width="40" height="40" rx="20" fill="#FFEBEF"/>
<path d="M24.2752 11.3379C23.4502 11.3379 22.6627 11.4879 21.9127 11.7504C20.4877 10.6629 18.7252 10.0254 16.8127 10.0254C12.2002 10.0254 8.4502 13.7754 8.4502 18.3879C8.4502 22.8879 16.0627 29.5629 16.3627 29.8254C16.4752 29.9379 16.6252 29.9754 16.7752 29.9754C16.9252 29.9754 17.0752 29.9379 17.1877 29.8254C17.3377 29.6754 19.2127 28.0254 21.1252 25.8504C22.5127 27.3504 23.7502 28.4379 23.7877 28.4754C23.9002 28.5879 24.0502 28.6254 24.2002 28.6254C24.3502 28.6254 24.5002 28.5879 24.6127 28.4754C24.8752 28.2504 31.4377 22.4754 31.4377 18.5754C31.5502 14.6004 28.2877 11.3379 24.2752 11.3379ZM16.8127 28.4379C14.5252 26.3379 9.8002 21.3879 9.8002 18.3879C9.8002 14.5254 12.9502 11.3379 16.8502 11.3379C20.7502 11.3379 23.9002 14.4879 23.9002 18.3879C23.8627 21.3879 19.1377 26.3379 16.8127 28.4379ZM24.2752 27.1254C23.7877 26.6754 22.9252 25.8504 22.0252 24.8754C23.7127 22.7754 25.1752 20.3754 25.1752 18.3879C25.1752 16.2504 24.3502 14.3004 23.0377 12.8004C23.4502 12.7254 23.8627 12.6504 24.2752 12.6504C27.5377 12.6504 30.2002 15.3129 30.2002 18.5754C30.2377 21.1629 26.2627 25.2879 24.2752 27.1254Z" fill="#E5345D"/>
<path d="M16.8128 14.4883C14.7128 14.4883 12.9878 16.2133 12.9878 18.3133C12.9878 20.4133 14.7128 22.1383 16.8128 22.1383C18.9128 22.1383 20.6378 20.4133 20.6378 18.3133C20.6378 16.2133 18.9128 14.4883 16.8128 14.4883ZM16.8128 20.8258C15.4253 20.8258 14.3003 19.7008 14.3003 18.3133C14.3003 16.9258 15.4253 15.8008 16.8128 15.8008C18.2003 15.8008 19.3253 16.9258 19.3253 18.3133C19.3253 19.7008 18.2003 20.8258 16.8128 20.8258Z" fill="#E5345D"/>
</svg>
