<svg width="104" height="33" viewBox="0 0 104 33" fill="none" xmlns="http://www.w3.org/2000/svg">
<g clip-path="url(#clip0_814_209105)">
<path d="M47.3074 13.6015L49.4637 21.5365C49.6927 22.3852 50.0743 22.7997 51.2192 22.7997C52.3451 22.7997 52.7076 22.3852 52.8985 21.5759L55.4173 11.3513C55.4746 11.1144 55.5509 10.8184 55.5509 10.6012C55.5509 10.167 55.3028 9.77222 54.3105 9.77222C53.4137 9.77222 53.1275 10.1078 52.9557 10.8776L51.1048 19.5034L49.0248 11.5684C48.7958 10.6407 48.4142 10.2459 47.3837 10.2459C46.3151 10.2459 45.9335 10.6802 45.7045 11.5684L43.5673 19.5034L41.7736 10.8776C41.6209 10.1078 41.3156 9.77222 40.3806 9.77222C39.3311 9.77222 39.083 10.167 39.083 10.6012C39.083 10.8184 39.1403 11.1144 39.1975 11.3513L41.6591 21.5759C41.869 22.3852 42.2125 22.7997 43.3574 22.7997C44.6168 22.7997 44.884 22.3063 45.113 21.5365L47.3074 13.6015Z" fill="#2D3339"/>
<path d="M66.025 9.77222C65.1663 9.77222 64.7465 10.1275 64.7465 10.8381V14.924H59.8424V10.8381C59.8424 10.1275 59.4226 9.77222 58.5448 9.77222C57.6671 9.77222 57.2473 10.1275 57.2473 10.8381V21.7338C57.2473 22.4444 57.6671 22.7997 58.5448 22.7997C59.4226 22.7997 59.8424 22.4444 59.8424 21.7338V17.3124H64.7465V21.7338C64.7465 22.4444 65.1663 22.7997 66.0441 22.7997C66.9028 22.7997 67.3226 22.4444 67.3226 21.7338V10.8381C67.3226 10.1275 66.9028 9.77222 66.025 9.77222Z" fill="#2D3339"/>
<path d="M74.1815 15.8517L71.5672 10.7789C71.2046 10.0486 70.7848 9.77222 69.8498 9.77222C68.9339 9.77222 68.6095 10.0486 68.6095 10.4631C68.6095 10.8381 68.8766 11.2131 69.1056 11.6671L72.8457 18.4572V21.7338C72.8457 22.4444 73.2655 22.7997 74.1433 22.7997C75.0211 22.7997 75.4409 22.4444 75.4409 21.7338V18.4375L79.2573 11.5882C79.4672 11.2131 79.7153 10.8381 79.7153 10.4631C79.7153 10.0486 79.41 9.77222 78.5131 9.77222C77.4827 9.77222 77.1773 10.1275 76.8339 10.7789L74.1815 15.8517Z" fill="#2D3339"/>
<path d="M83.3752 20.3127L88.2984 12.6935C88.68 12.1211 88.9853 11.6276 88.9853 10.9763C88.9853 10.2459 88.5846 9.87091 87.7831 9.87091H81.2952C80.6083 9.87091 80.2648 10.2657 80.2648 11.075C80.2648 11.8645 80.6083 12.2593 81.2952 12.2593H85.8177L80.8945 19.8784C80.5128 20.4508 80.2075 20.9443 80.2075 21.5957C80.2075 22.326 80.6083 22.701 81.4097 22.701H88.1266C88.8136 22.701 89.1571 22.3063 89.1571 21.497C89.1571 20.7074 88.8136 20.3127 88.1266 20.3127H83.3752Z" fill="#2D3339"/>
<path d="M93.1398 14.9437V12.2001H97.3761C98.063 12.2001 98.4065 11.825 98.4065 11.0355C98.4065 10.2459 98.063 9.87091 97.3761 9.87091H91.9758C91.079 9.87091 90.6783 10.2854 90.6783 11.2131V21.3588C90.6783 22.2865 91.079 22.701 91.9758 22.701H97.4906C98.1775 22.701 98.521 22.326 98.521 21.5365C98.521 20.7469 98.1775 20.3719 97.4906 20.3719H93.1398V17.2729H96.5937C97.2807 17.2729 97.6241 16.8979 97.6241 16.1083C97.6241 15.3188 97.2807 14.9437 96.5937 14.9437H93.1398Z" fill="#2D3339"/>
<g clip-path="url(#clip1_814_209105)">
<path d="M11.201 14.2466C8.84881 14.2466 6.96022 13.5413 5.5781 12.1478C3.44914 9.9888 2.64219 6.33309 3.08858 0.965648C3.11434 0.612979 3.31178 0.286115 3.60366 0.0882769C3.90412 -0.109562 4.27325 -0.15257 4.60805 -0.0407482C9.52699 1.61077 12.4801 3.76979 13.6476 6.55674C14.5146 8.63834 14.3258 10.9952 13.0724 13.5671C12.8921 13.937 12.523 14.1864 12.1109 14.2122C11.8019 14.238 11.4929 14.2466 11.201 14.2466ZM5.31198 2.68598C5.17463 6.45352 5.81847 9.08563 7.23492 10.5135C8.17922 11.4769 9.50124 11.9328 11.2697 11.9242C11.9736 10.2297 12.0509 8.75877 11.51 7.45991C10.7288 5.60195 8.65137 4.00204 5.31198 2.68598Z" fill="#B4D411"/>
<path d="M7.44165 26.7622C5.52729 26.7622 3.26956 26.031 0.599761 24.5516C0.290718 24.3795 0.0761039 24.0699 0.016012 23.7172C-0.0440798 23.3645 0.0675194 23.0032 0.307887 22.7452C3.1322 19.6744 5.6904 18.2035 8.16275 18.2723C10.017 18.3153 11.7168 19.2529 13.2019 21.0421C13.468 21.3603 13.5453 21.799 13.3993 22.1861C12.6181 24.3365 11.3562 25.7472 9.65646 26.3837C8.97828 26.6418 8.24001 26.7622 7.44165 26.7622ZM3.08928 23.2269C5.54446 24.3881 7.47599 24.7236 8.84951 24.2075C9.74231 23.872 10.4377 23.1581 10.9613 22.0227C10.0514 21.0937 9.10705 20.6206 8.10266 20.5948C6.64329 20.5604 4.9693 21.4463 3.08928 23.2269Z" fill="#B4D411"/>
<path d="M25.1085 24.9815C24.1212 24.9815 23.0739 24.7407 21.9579 24.259C21.5802 24.0955 21.3141 23.7429 21.2626 23.33C20.9793 21.0161 21.4686 19.141 22.7134 17.7561C24.353 15.924 27.1773 15.0552 31.3494 15.0982C31.7014 15.0982 32.0362 15.2702 32.2594 15.5541C32.474 15.8379 32.5513 16.2078 32.4654 16.5519C31.3923 20.7495 29.787 23.3214 27.5722 24.4138C26.8082 24.7923 25.9841 24.9815 25.1085 24.9815ZM23.5203 22.3666C24.705 22.7623 25.7008 22.7451 26.5592 22.3236C27.8727 21.6785 28.9543 20.0442 29.7956 17.4551C27.2117 17.6013 25.4175 18.2206 24.4474 19.3044C23.7693 20.0614 23.4688 21.0678 23.5203 22.3666Z" fill="#B4D411"/>
<path d="M23.0989 10.6943H21.425V9.01694C21.425 8.37181 20.9013 7.85571 20.266 7.85571C19.6222 7.85571 19.1071 8.37181 19.1071 9.01694V10.6943H17.4245C16.7807 10.6943 16.2656 11.2104 16.2656 11.8555C16.2656 12.5006 16.7893 13.0167 17.4245 13.0167H19.0985V14.694C19.0985 15.3392 19.6222 15.8553 20.2574 15.8553C20.9013 15.8553 21.4164 15.3392 21.4164 14.694V13.0167H23.0904C23.7342 13.0167 24.2493 12.5006 24.2493 11.8555C24.2579 11.219 23.7428 10.6943 23.0989 10.6943Z" fill="#F43460"/>
<path d="M12.8413 17.9366L22.4731 31.5874H25.349L14.9445 16.8958C14.4981 16.0872 14.1289 15.855 13.3048 15.855C12.5494 15.855 12.1631 16.0442 12.1631 16.4227C12.1631 16.8012 12.4206 17.2312 12.7726 17.8162L12.8413 17.9366Z" fill="#2D3339"/>
</g>
</g>
<defs>
<clipPath id="clip0_814_209105">
<rect width="104" height="32.5" fill="white"/>
</clipPath>
<clipPath id="clip1_814_209105">
<rect width="32.5" height="32.5" fill="white"/>
</clipPath>
</defs>
</svg>
