<svg width="40" height="40" viewBox="0 0 40 40" fill="none" xmlns="http://www.w3.org/2000/svg">
<rect width="40" height="40" rx="20" fill="#FFF7E0"/>
<g clip-path="url(#clip0_2163_121779)">
<path d="M13.9248 8.48828C10.9248 8.48828 8.4873 10.9258 8.4873 13.9258V19.3633V20.6383V26.0758C8.4873 29.0758 10.9248 31.5133 13.9248 31.5133C16.9248 31.5133 19.3623 29.0758 19.3623 26.0758V20.6383V19.3633V13.9258C19.3623 10.9258 16.9248 8.48828 13.9248 8.48828ZM18.0498 26.0758C18.0498 28.3633 16.1748 30.2008 13.9248 30.2008C11.6748 30.2008 9.7998 28.3258 9.7998 26.0758V20.6758H18.0873V26.0758H18.0498ZM18.0498 19.3258H9.7998V13.9258C9.7998 11.6383 11.6373 9.80078 13.9248 9.80078C16.2123 9.80078 18.0498 11.6383 18.0498 13.9258V19.3258Z" fill="#FABB00"/>
<path d="M12.1623 14.2266C11.7873 14.2266 11.4873 14.5266 11.4873 14.9016V16.4391C11.4873 16.8141 11.7873 17.1141 12.1623 17.1141C12.5373 17.1141 12.8373 16.8141 12.8373 16.4391V14.9016C12.7998 14.5266 12.5373 14.2266 12.1623 14.2266Z" fill="#FABB00"/>
<path d="M12.1623 25.7742C12.5373 25.7742 12.8373 25.4742 12.8373 25.0992V23.5617C12.8373 23.1867 12.5373 22.8867 12.1623 22.8867C11.7873 22.8867 11.4873 23.1867 11.4873 23.5617V25.0992C11.4873 25.4742 11.7873 25.7742 12.1623 25.7742Z" fill="#FABB00"/>
<path d="M30.0873 16.5516C28.1748 14.6391 25.0623 14.6391 23.1873 16.5516C21.2748 18.4641 21.2748 21.5766 23.1873 23.4516C24.1248 24.3891 25.3998 24.8766 26.6373 24.8766C27.8748 24.8766 29.1498 24.3891 30.0873 23.4516C31.9998 21.5391 31.9998 18.4641 30.0873 16.5516ZM24.1248 22.5516C22.8873 21.3141 22.7373 19.4016 23.7123 18.0141L28.6998 23.0016C27.2748 23.9016 25.3623 23.7516 24.1248 22.5516ZM29.5998 22.0266L24.6123 17.0391C25.2123 16.6266 25.9248 16.4016 26.6373 16.4016C27.5373 16.4016 28.4748 16.7391 29.1873 17.4516C30.4248 18.6891 30.5373 20.6391 29.5998 22.0266Z" fill="#FABB00"/>
</g>
<defs>
<clipPath id="clip0_2163_121779">
<rect width="24" height="24" fill="white" transform="translate(8 8)"/>
</clipPath>
</defs>
</svg>
