<svg width="40" height="40" viewBox="0 0 40 40" fill="none" xmlns="http://www.w3.org/2000/svg">
<rect width="40" height="40" rx="20" fill="#E9FCFC"/>
<path d="M13.2877 25.6633C13.8877 26.2633 14.6752 26.5633 15.5002 26.5633C16.3252 26.5633 17.1127 26.2258 17.7127 25.6633L29.9752 13.4008C30.3127 13.0633 30.5002 12.6133 30.5002 12.1633C30.5002 11.7133 30.3127 11.2633 29.9752 10.9258L28.0627 9.01328C27.7252 8.67578 27.2752 8.48828 26.8252 8.48828C26.3752 8.48828 25.9252 8.67578 25.5877 9.01328L13.2877 21.2758C12.6877 21.8758 12.3877 22.6633 12.3877 23.4883C12.3877 24.3133 12.6877 25.1008 13.2877 25.6633ZM26.4877 9.91328C26.5627 9.83828 26.6752 9.76328 26.8252 9.76328C26.9377 9.76328 27.0502 9.80078 27.1627 9.91328L29.0752 11.8258C29.1502 11.9008 29.2252 12.0133 29.2252 12.1633C29.2252 12.2758 29.1877 12.3883 29.0752 12.5008L19.5877 21.9133L17.0377 19.3633L26.4877 9.91328ZM14.2252 22.2133L16.1377 20.3008L18.6877 22.8508L16.7752 24.7633C16.4377 25.1008 15.9877 25.2883 15.5002 25.2883C15.0127 25.2883 14.5627 25.1008 14.2252 24.7633C13.8877 24.4258 13.7002 23.9758 13.7002 23.4883C13.7002 23.0008 13.8502 22.5508 14.2252 22.2133Z" fill="#0D5959"/>
</svg>
