<svg width="6" height="22" viewBox="0 0 6 22" fill="none" xmlns="http://www.w3.org/2000/svg">
<path d="M3.00001 5.66536C4.46668 5.66536 5.66668 4.46536 5.66668 2.9987C5.66668 1.53203 4.46668 0.332031 3.00001 0.332031C1.53334 0.332031 0.333344 1.53203 0.333344 2.9987C0.333344 4.46536 1.53334 5.66536 3.00001 5.66536ZM3.00001 8.33203C1.53334 8.33203 0.333344 9.53203 0.333344 10.9987C0.333344 12.4654 1.53334 13.6654 3.00001 13.6654C4.46668 13.6654 5.66668 12.4654 5.66668 10.9987C5.66668 9.53203 4.46668 8.33203 3.00001 8.33203ZM3.00001 16.332C1.53334 16.332 0.333344 17.532 0.333344 18.9987C0.333344 20.4654 1.53334 21.6654 3.00001 21.6654C4.46668 21.6654 5.66668 20.4654 5.66668 18.9987C5.66668 17.532 4.46668 16.332 3.00001 16.332Z" fill="#0D5959"/>
</svg>
