<svg width="16" height="16" viewBox="0 0 16 16" fill="none" xmlns="http://www.w3.org/2000/svg">
<path d="M15.2249 11.3249L12.9499 9.79994C12.4499 9.47494 11.8249 9.62494 11.4499 10.1749L10.8499 10.9999C10.7999 11.0749 10.6999 11.0999 10.6499 11.0499C7.57486 9.12494 5.64986 6.42494 4.97486 5.37494C4.92486 5.29994 4.94986 5.19994 5.02486 5.14994L5.94986 4.49994C6.42486 4.17494 6.52486 3.52494 6.22486 3.07494L4.69986 0.799937C4.39986 0.349937 3.77486 0.199937 3.29986 0.474937L1.09986 1.74994C1.04986 1.77494 1.02486 1.77494 0.999859 1.82494C-0.700141 3.49994 0.874859 7.72494 4.57486 11.4249C6.29986 13.1499 8.19986 14.4749 9.94986 15.1749C10.8249 15.5249 11.5999 15.6999 12.2749 15.6999C13.0499 15.6999 13.6999 15.4749 14.1749 14.9999C14.1999 14.9749 14.2249 14.9499 14.2499 14.9249L15.5499 12.7499C15.8249 12.2499 15.6749 11.6249 15.2249 11.3249ZM14.7749 12.2749L13.5249 14.3999C12.9249 14.9499 11.7499 14.9249 10.2749 14.3499C8.62486 13.6999 6.82486 12.4249 5.17486 10.7999C1.64986 7.27494 0.474859 3.67494 1.57486 2.47494L3.69986 1.22494C3.77486 1.17494 3.87486 1.19994 3.92486 1.27494L5.44986 3.54994C5.49986 3.62494 5.47486 3.72494 5.39986 3.77494L4.49986 4.42494C4.04986 4.74994 3.92486 5.34994 4.22486 5.82494C4.94986 6.94994 6.94986 9.74994 10.1749 11.7749C10.6499 12.0749 11.2499 11.9499 11.5749 11.4749L12.1499 10.6499C12.1999 10.5999 12.3249 10.4249 12.4499 10.4999L14.7249 12.0249C14.7999 12.0999 14.8249 12.1999 14.7749 12.2749Z" fill="#2D3339"/>
</svg>
