<svg width="24" height="20" viewBox="0 0 24 20" fill="none" xmlns="http://www.w3.org/2000/svg">
<path d="M21.45 9.775C20.55 8.6875 19.425 7.975 18.15 7.6C19.3875 6.9625 20.25 5.65 20.25 4.15C20.25 1.975 18.4875 0.25 16.35 0.25C14.2125 0.25 12.45 2.0125 12.45 4.15C12.45 5.65 13.3125 6.9625 14.55 7.6C13.3125 7.975 12.1875 8.6875 11.2875 9.775C11.2125 9.85 11.175 9.925 11.1 10C10.575 9.6625 10.05 9.4375 9.4875 9.2875C10.725 8.65 11.5875 7.3375 11.5875 5.8375C11.5875 3.6625 9.825 1.9375 7.6875 1.9375C5.5125 1.9375 3.7875 3.7 3.7875 5.8375C3.7875 7.3375 4.65 8.65 5.8875 9.2875C4.65 9.6625 3.525 10.375 2.625 11.4625C1.3125 13 0.6 15.1375 0.5625 17.4625C0.5625 17.725 0.7125 17.95 0.9375 18.0625C1.7625 18.475 4.65 19.7875 7.7625 19.7875C11.1375 19.7875 13.8375 18.475 14.5875 18.0625C14.625 18.025 14.6625 18.025 14.7 17.9875C15.3 18.0625 15.9 18.1375 16.4625 18.1375C19.8 18.1375 22.5375 16.825 23.2875 16.4125C23.5125 16.3 23.625 16.075 23.625 15.8125C23.475 13.45 22.7625 11.3125 21.45 9.775ZM13.7625 4.1125C13.7625 2.6875 14.925 1.525 16.35 1.525C17.775 1.525 18.9375 2.6875 18.9375 4.1125C18.9375 5.5375 17.775 6.7 16.35 6.7C14.925 6.7 13.7625 5.575 13.7625 4.1125ZM5.025 5.8C5.025 4.375 6.1875 3.2125 7.6125 3.2125C9.0375 3.2125 10.2 4.375 10.2 5.8C10.2 7.225 9.0375 8.3875 7.6125 8.3875C6.225 8.3875 5.025 7.225 5.025 5.8ZM7.65 18.475C5.175 18.475 2.775 17.5 1.8 17.05C1.9125 15.175 2.5125 13.4875 3.5625 12.2875C4.65 11.0125 6.075 10.3 7.65 10.3C9.225 10.3 10.65 11.0125 11.7375 12.2875C12.7875 13.525 13.3875 15.2125 13.5 17.0875C12.5625 17.5375 10.3125 18.475 7.65 18.475ZM16.35 16.7875C15.8625 16.7875 15.3 16.75 14.775 16.675C14.5875 14.65 13.875 12.8125 12.75 11.425C12.5625 11.2 12.3375 10.975 12.1125 10.7875C12.15 10.7125 12.225 10.675 12.2625 10.6C13.35 9.325 14.775 8.6125 16.35 8.6125C17.925 8.6125 19.35 9.325 20.4375 10.6C21.4875 11.8375 22.0875 13.525 22.2 15.4C21.225 15.8875 19.0125 16.7875 16.35 16.7875Z" fill="#B5BAC0"/>
</svg>
