<svg width="40" height="40" viewBox="0 0 40 40" fill="none" xmlns="http://www.w3.org/2000/svg">
<rect width="40" height="40" rx="20" fill="#F7FCD9"/>
<g clip-path="url(#clip0_965_65577)">
<path d="M15.05 18.7227H22.25C22.625 18.7227 22.925 18.4227 22.925 18.0477C22.925 17.6727 22.625 17.4102 22.25 17.4102H15.05C14.675 17.4102 14.375 17.7102 14.375 18.0852C14.375 18.4602 14.675 18.7227 15.05 18.7227Z" fill="#718E0B"/>
<path d="M15.05 22.6992H22.25C22.625 22.6992 22.925 22.3992 22.925 22.0242C22.925 21.6492 22.625 21.3867 22.25 21.3867H15.05C14.675 21.3867 14.375 21.6867 14.375 22.0617C14.375 22.4367 14.675 22.6992 15.05 22.6992Z" fill="#718E0B"/>
<path d="M24.95 25.3594H15.05C14.675 25.3594 14.375 25.6594 14.375 26.0344C14.375 26.4094 14.675 26.7094 15.05 26.7094H24.9875C25.3625 26.7094 25.6625 26.4094 25.6625 26.0344C25.6625 25.6594 25.325 25.3594 24.95 25.3594Z" fill="#718E0B"/>
<path d="M29.7873 12.8359H20.3373L19.2498 9.68594C19.0248 8.97344 18.3498 8.52344 17.5998 8.52344H10.2123C9.2373 8.52344 8.4873 9.27344 8.4873 10.2484V29.7484C8.4873 30.6859 9.2748 31.4734 10.2123 31.4734H29.8248C30.7623 31.4734 31.5498 30.6859 31.5498 29.7484V14.5609C31.5498 13.6234 30.7623 12.8359 29.7873 12.8359ZM30.2373 29.7484C30.2373 29.9734 30.0498 30.1609 29.8248 30.1609H10.2123C9.9873 30.1609 9.7998 29.9734 9.7998 29.7484V10.2484C9.7998 10.0234 9.9873 9.83594 10.2123 9.83594H17.6373C17.8248 9.83594 17.9748 9.94844 18.0123 10.0984L19.2498 13.6984C19.3248 13.9609 19.5873 14.1484 19.8873 14.1484H29.8248C30.0498 14.1484 30.2373 14.3359 30.2373 14.5609V29.7484Z" fill="#718E0B"/>
</g>
<defs>
<clipPath id="clip0_965_65577">
<rect width="24" height="24" fill="white" transform="translate(8 8)"/>
</clipPath>
</defs>
</svg>
