<svg width="40" height="40" viewBox="0 0 40 40" fill="none" xmlns="http://www.w3.org/2000/svg">
<g clip-path="url(#clip0_484_194805)">
<path d="M20.0002 8.44995C13.6252 8.44995 8.4502 13.625 8.4502 20C8.4502 26.375 13.6252 31.5125 20.0002 31.5125C21.8752 31.5125 23.7502 31.025 25.5502 30.0875C27.0502 29.3 27.8752 28.325 27.9502 27.2C28.0627 25.9625 27.2752 24.875 26.7127 24.3125C27.3877 23.4875 27.3502 22.4 26.6002 21.6125L25.1002 20.1125C24.3127 19.325 23.1127 19.325 22.2877 20.1125L21.8377 20.5625C21.4627 20.3 20.9002 19.8875 20.4877 19.5125C20.0377 19.0625 19.6252 18.5375 19.3627 18.125C19.5502 17.9375 19.7002 17.7875 19.8127 17.675L19.8502 17.6375C20.6752 16.8125 20.6752 15.6125 19.8502 14.7875C19.5127 14.45 18.4252 13.3625 18.3502 13.2875C17.5252 12.5 16.4002 12.4625 15.5377 13.2875L14.6002 14.225C14.1502 14.675 13.8502 15.275 13.8127 15.9125C13.7377 16.85 14.0002 17.675 14.1877 18.2375C14.6377 19.5125 15.3502 20.675 16.4002 21.9125C16.7002 22.25 16.9627 22.55 17.2252 22.8125C18.2752 23.8625 19.5127 24.7625 20.8627 25.4C21.5377 25.7375 22.4377 26.1125 23.5252 26.1875C23.6002 26.1875 23.6377 26.1875 23.7127 26.1875C24.5377 26.1875 25.2502 25.8875 25.7752 25.325L25.8127 25.2875C26.1877 25.7 26.7127 26.4125 26.6377 27.125C26.5627 27.8 26.0002 28.4 24.9127 28.9625C23.3002 29.825 21.6127 30.2374 19.9627 30.2374C14.3752 30.2 9.7627 25.625 9.7627 20C9.7627 14.375 14.3752 9.76245 20.0002 9.76245C25.6252 9.76245 30.2002 14.375 30.2002 20C30.2002 21.0125 30.0502 21.9875 29.7502 22.9625C29.6377 23.3 29.8252 23.675 30.2002 23.7875C30.5377 23.9 30.9127 23.7125 31.0252 23.3375C31.3627 22.25 31.5127 21.125 31.5127 20C31.5127 13.625 26.3752 8.44995 20.0002 8.44995ZM23.6002 24.875C22.7752 24.8375 22.0252 24.5 21.4252 24.2375C20.1877 23.6375 19.1002 22.85 18.1252 21.9125C17.8627 21.65 17.6377 21.3875 17.3752 21.0875C16.4377 19.9625 15.8002 18.9125 15.3877 17.825C15.2002 17.3375 15.0127 16.7375 15.0877 16.0625C15.1252 15.725 15.2377 15.425 15.5002 15.2L16.4377 14.2625C16.7377 13.9625 17.1127 13.9625 17.4127 14.2625C17.4877 14.3375 18.3502 15.2 18.9127 15.7625C19.2502 16.1 19.2502 16.4375 18.9127 16.775L18.8752 16.8125C18.7252 16.9625 18.2752 17.4125 18.0877 17.5625C17.9002 17.75 17.8252 18.05 17.9377 18.3125C18.1252 18.7625 18.8002 19.775 19.5502 20.4875C20.3752 21.3125 21.6127 22.025 21.6127 22.025C21.8752 22.175 22.1752 22.1 22.4002 21.9125L23.2252 21.0875C23.5252 20.7875 23.8627 20.7875 24.1627 21.0875L25.6627 22.5875C25.9627 22.8875 25.9627 23.2625 25.6627 23.6C25.5502 23.7125 24.8377 24.425 24.8377 24.4625C24.5002 24.7625 24.0877 24.9125 23.6002 24.875Z" fill="#2D3339"/>
</g>
<defs>
<clipPath id="clip0_484_194805">
<rect width="24" height="24" fill="white" transform="translate(8 8)"/>
</clipPath>
</defs>
</svg>
