<svg width="40" height="40" viewBox="0 0 40 40" fill="none" xmlns="http://www.w3.org/2000/svg">
<path d="M29.7502 18.8375H21.9877C22.0627 18.4625 22.1002 18.0875 22.1002 17.7125C22.1002 16.5125 21.7627 15.3125 21.1627 14.2625C19.9252 12.2 17.7877 10.9625 15.3877 10.925H15.2002C15.1627 10.925 15.0877 10.925 15.0502 10.925C14.9752 10.925 14.9002 10.925 14.8252 10.925C12.5752 11.075 10.5502 12.3125 9.3877 14.2625C8.7877 15.3125 8.4502 16.5125 8.4502 17.7125C8.4502 19.175 8.9002 20.5625 9.7627 21.725C10.8502 23.225 12.5002 24.2 14.3377 24.4625V27.3125C14.3377 28.2875 15.1252 29.1125 16.1377 29.1125H29.7502C30.7252 29.1125 31.5502 28.325 31.5502 27.3125V20.6C31.5127 19.625 30.7252 18.8375 29.7502 18.8375ZM16.1002 18.8375C15.3877 18.8375 14.7502 19.2875 14.4877 19.8875C14.3377 19.8875 14.1877 19.8875 14.0002 19.925C13.8502 19.2125 13.7752 18.4625 13.7752 17.7125C13.7752 17.1875 13.8127 16.6625 13.8877 16.1375C14.3377 16.175 14.7877 16.2125 15.2752 16.2125C15.6502 16.2125 16.0252 16.2125 16.3627 16.175C16.4377 16.7 16.4752 17.225 16.4752 17.75C16.4752 18.125 16.4377 18.5 16.4002 18.875H16.1002V18.8375ZM14.1877 14.825C14.4127 14.0375 14.7127 13.325 15.1252 12.575C15.5377 13.2875 15.8377 14.0375 16.0627 14.825C15.4627 14.9 14.8252 14.8625 14.1877 14.825ZM13.0627 21.35C13.2502 21.9125 13.4752 22.475 13.7377 23C12.8752 22.7375 12.1252 22.2875 11.4877 21.6875C12.0127 21.5375 12.5377 21.425 13.0627 21.35ZM29.3377 20.15L22.9252 22.7L16.5127 20.15H29.3377ZM17.7502 18.8375C17.7877 18.4625 17.8252 18.0875 17.8252 17.7125C17.8252 17.15 17.7877 16.55 17.7127 15.9875C18.6127 15.8375 19.4752 15.65 20.3002 15.3875C20.6377 16.1 20.8252 16.925 20.8252 17.7125C20.8252 18.0875 20.7877 18.4625 20.7127 18.8375H17.7502ZM19.5502 14.225C18.8377 14.45 18.1252 14.6 17.4127 14.7125C17.1877 13.8875 16.8877 13.1 16.5127 12.35C17.7127 12.6125 18.7627 13.2875 19.5502 14.225ZM13.7377 12.425C13.3627 13.1375 13.1002 13.8875 12.8752 14.675C12.2377 14.5625 11.6377 14.4125 11.0002 14.225C11.7127 13.3625 12.6502 12.7625 13.7377 12.425ZM10.2877 15.3875C11.0377 15.65 11.8252 15.8375 12.5752 15.95C12.5002 16.5125 12.4252 17.1125 12.4252 17.7125C12.4252 18.5 12.5002 19.2875 12.6502 20.075C11.9377 20.1875 11.2252 20.375 10.5127 20.5625C9.9877 19.7 9.7252 18.725 9.7252 17.7125C9.7627 16.8875 9.9502 16.1 10.2877 15.3875ZM29.7502 27.8H16.1002C15.8377 27.8 15.6127 27.575 15.6127 27.3125V23.9C15.6127 23.8625 15.6127 23.825 15.6127 23.7875V21.1625L22.6627 23.9375C22.7377 23.975 22.8127 23.975 22.8877 23.975C22.9627 23.975 23.0377 23.975 23.1127 23.9375L30.1627 21.1625V27.275C30.2002 27.5751 30.0127 27.8 29.7502 27.8Z" fill="#2D3339"/>
</svg>
