<svg width="20" height="20" viewBox="0 0 20 20" fill="none" xmlns="http://www.w3.org/2000/svg">
<path d="M10.0003 1.66675C5.40033 1.66675 1.66699 5.40008 1.66699 10.0001C1.66699 14.6001 5.40033 18.3334 10.0003 18.3334C14.6003 18.3334 18.3337 14.6001 18.3337 10.0001C18.3337 5.40008 14.6003 1.66675 10.0003 1.66675ZM10.0003 4.16675C11.3837 4.16675 12.5003 5.28341 12.5003 6.66675C12.5003 8.05008 11.3837 9.16675 10.0003 9.16675C8.61699 9.16675 7.50033 8.05008 7.50033 6.66675C7.50033 5.28341 8.61699 4.16675 10.0003 4.16675ZM10.0003 16.0001C7.91699 16.0001 6.07533 14.9334 5.00033 13.3167C5.02533 11.6584 8.33366 10.7501 10.0003 10.7501C11.6587 10.7501 14.9753 11.6584 15.0003 13.3167C13.9253 14.9334 12.0837 16.0001 10.0003 16.0001Z" fill="#2D3339"/>
</svg>
