<svg width="20" height="20" viewBox="0 0 20 20" fill="none" xmlns="http://www.w3.org/2000/svg">
<path d="M17.2812 0.40625H2.71875C1.4375 0.40625 0.375 1.46875 0.375 2.75V3.53125C0.40625 3.8125 0.625 4.0625 0.9375 4.0625C1.25 4.0625 1.5 3.8125 1.5 3.5V2.71875C1.5 2.03125 2.0625 1.46875 2.75 1.46875H9.46875V18.5H6C5.6875 18.5 5.4375 18.75 5.4375 19.0625C5.4375 19.375 5.6875 19.625 6 19.625H14C14.3125 19.625 14.5625 19.375 14.5625 19.0625C14.5625 18.75 14.3125 18.5 14 18.5H10.5625V1.5H17.2812C17.9688 1.5 18.5312 2.0625 18.5312 2.75V3.53125C18.5312 3.84375 18.7812 4.09375 19.0938 4.09375C19.4062 4.09375 19.6562 3.84375 19.6562 3.53125V2.71875C19.625 1.4375 18.5625 0.40625 17.2812 0.40625Z" fill="#2D3339"/>
</svg>
