<svg width="12" height="15" viewBox="0 0 12 15" fill="none" xmlns="http://www.w3.org/2000/svg">
<path d="M6.00033 11.3327C6.73366 11.3327 7.33366 10.7327 7.33366 9.99935C7.33366 9.26602 6.73366 8.66602 6.00033 8.66602C5.26699 8.66602 4.66699 9.26602 4.66699 9.99935C4.66699 10.7327 5.26699 11.3327 6.00033 11.3327ZM10.0003 5.33268H9.33366V3.99935C9.33366 2.15935 7.84032 0.666016 6.00033 0.666016C4.16033 0.666016 2.66699 2.15935 2.66699 3.99935V5.33268H2.00033C1.26699 5.33268 0.666992 5.93268 0.666992 6.66602V13.3327C0.666992 14.066 1.26699 14.666 2.00033 14.666H10.0003C10.7337 14.666 11.3337 14.066 11.3337 13.3327V6.66602C11.3337 5.93268 10.7337 5.33268 10.0003 5.33268ZM3.93366 3.99935C3.93366 2.85935 4.86033 1.93268 6.00033 1.93268C7.14033 1.93268 8.06699 2.85935 8.06699 3.99935V5.33268H3.93366V3.99935ZM10.0003 13.3327H2.00033V6.66602H10.0003V13.3327Z" fill="#6C757F"/>
</svg>
