<svg width="18" height="18" viewBox="0 0 18 18" fill="none" xmlns="http://www.w3.org/2000/svg">
<path d="M9.83366 4.83464H8.16699V8.16797H4.83366V9.83464H8.16699V13.168H9.83366V9.83464H13.167V8.16797H9.83366V4.83464ZM9.00033 0.667969C4.40033 0.667969 0.666992 4.4013 0.666992 9.0013C0.666992 13.6013 4.40033 17.3346 9.00033 17.3346C13.6003 17.3346 17.3337 13.6013 17.3337 9.0013C17.3337 4.4013 13.6003 0.667969 9.00033 0.667969ZM9.00033 15.668C5.32533 15.668 2.33366 12.6763 2.33366 9.0013C2.33366 5.3263 5.32533 2.33464 9.00033 2.33464C12.6753 2.33464 15.667 5.3263 15.667 9.0013C15.667 12.6763 12.6753 15.668 9.00033 15.668Z" fill="#0D5959"/>
</svg>
