<svg width="25" height="26" viewBox="0 0 25 26" fill="none" xmlns="http://www.w3.org/2000/svg">
<path d="M21.7352 14.5745C21.7858 14.1692 21.8238 13.7638 21.8238 13.3332C21.8238 12.9025 21.7858 12.4972 21.7352 12.0918L24.4078 10.0018C24.6485 9.81184 24.7118 9.46984 24.5598 9.19117L22.0265 4.8085C21.8745 4.52984 21.5325 4.4285 21.2538 4.52984L18.0998 5.7965C17.4412 5.28984 16.7318 4.87184 15.9592 4.55517L15.4778 1.1985C15.4398 0.894504 15.1738 0.666504 14.8572 0.666504H9.79049C9.47382 0.666504 9.20782 0.894504 9.16982 1.1985L8.68849 4.55517C7.91582 4.87184 7.20649 5.3025 6.54782 5.7965L3.39382 4.52984C3.10249 4.41584 2.77315 4.52984 2.62115 4.8085L0.08782 9.19117C-0.0768467 9.46984 -0.000846516 9.81184 0.23982 10.0018L2.91249 12.0918C2.86182 12.4972 2.82382 12.9152 2.82382 13.3332C2.82382 13.7512 2.86182 14.1692 2.91249 14.5745L0.23982 16.6645C-0.000846516 16.8545 -0.06418 17.1965 0.08782 17.4752L2.62115 21.8578C2.77315 22.1365 3.11515 22.2378 3.39382 22.1365L6.54782 20.8698C7.20649 21.3765 7.91582 21.7945 8.68849 22.1112L9.16982 25.4678C9.20782 25.7718 9.47382 25.9998 9.79049 25.9998H14.8572C15.1738 25.9998 15.4398 25.7718 15.4778 25.4678L15.9592 22.1112C16.7318 21.7945 17.4412 21.3638 18.0998 20.8698L21.2538 22.1365C21.5452 22.2505 21.8745 22.1365 22.0265 21.8578L24.5598 17.4752C24.7118 17.1965 24.6485 16.8545 24.4078 16.6645L21.7352 14.5745ZM12.3238 17.7665C9.87915 17.7665 7.89049 15.7778 7.89049 13.3332C7.89049 10.8885 9.87915 8.89984 12.3238 8.89984C14.7685 8.89984 16.7572 10.8885 16.7572 13.3332C16.7572 15.7778 14.7685 17.7665 12.3238 17.7665Z" fill="#0D5959"/>
</svg>
