<svg width="15" height="18" viewBox="0 0 15 18" fill="none" xmlns="http://www.w3.org/2000/svg">
<path d="M12.5 12.3993C11.8667 12.3993 11.3 12.6494 10.8667 13.041L4.925 9.58268C4.96667 9.39102 5 9.19935 5 8.99935C5 8.79935 4.96667 8.60768 4.925 8.41602L10.8 4.99102C11.25 5.40768 11.8417 5.66602 12.5 5.66602C13.8833 5.66602 15 4.54935 15 3.16602C15 1.78268 13.8833 0.666016 12.5 0.666016C11.1167 0.666016 10 1.78268 10 3.16602C10 3.36602 10.0333 3.55768 10.075 3.74935L4.2 7.17435C3.75 6.75768 3.15833 6.49935 2.5 6.49935C1.11667 6.49935 0 7.61602 0 8.99935C0 10.3827 1.11667 11.4993 2.5 11.4993C3.15833 11.4993 3.75 11.241 4.2 10.8243L10.1333 14.291C10.0917 14.466 10.0667 14.6493 10.0667 14.8327C10.0667 16.1743 11.1583 17.266 12.5 17.266C13.8417 17.266 14.9333 16.1743 14.9333 14.8327C14.9333 13.491 13.8417 12.3993 12.5 12.3993Z" fill="white"/>
</svg>
