<svg width="20" height="13" viewBox="0 0 20 13" fill="none" xmlns="http://www.w3.org/2000/svg">
<path d="M10 4.3125C8.78125 4.3125 7.8125 5.3125 7.8125 6.5C7.8125 7.6875 8.8125 8.6875 10 8.6875C11.1875 8.6875 12.1875 7.6875 12.1875 6.5C12.1875 5.3125 11.2188 4.3125 10 4.3125ZM10 7.59375C9.40625 7.59375 8.90625 7.09375 8.90625 6.5C8.90625 5.90625 9.40625 5.40625 10 5.40625C10.5938 5.40625 11.0938 5.90625 11.0938 6.5C11.0938 7.09375 10.5938 7.59375 10 7.59375Z" fill="black"/>
<path d="M19.5 6.125C17.4375 2.875 13.875 0.9375 10 0.9375C6.125 0.9375 2.5625 2.875 0.5 6.125C0.375 6.34375 0.375 6.625 0.5 6.84375C2.5625 10.0938 6.125 12.0313 10 12.0313C13.875 12.0313 17.4375 10.0938 19.5 6.84375C19.6563 6.625 19.6563 6.34375 19.5 6.125ZM10 10.9375C6.59375 10.9375 3.4375 9.28125 1.5625 6.46875C3.4375 3.6875 6.59375 2.03125 10 2.03125C13.4063 2.03125 16.5625 3.6875 18.4375 6.46875C16.5625 9.28125 13.4063 10.9375 10 10.9375Z" fill="black"/>
</svg>