<svg width="24" height="18" viewBox="0 0 24 18" fill="none" xmlns="http://www.w3.org/2000/svg">
<path d="M21.3752 0.449219H9.00019C7.8002 0.449219 6.8252 1.42422 6.8252 2.62422V4.16172L1.8002 4.76172V1.34922C1.8002 0.974219 1.5002 0.674219 1.1252 0.674219C0.750195 0.674219 0.450195 0.974219 0.450195 1.34922V16.6117C0.450195 16.9867 0.750195 17.2867 1.1252 17.2867C1.5002 17.2867 1.8002 16.9867 1.8002 16.6117V13.1992L6.86269 13.7992V15.3742C6.86269 16.5742 7.8377 17.5492 9.03769 17.5492H21.4127C22.6127 17.5492 23.5877 16.5742 23.5877 15.3742V2.62422C23.5502 1.42422 22.5752 0.449219 21.3752 0.449219ZM1.8002 11.9242V6.07422L6.86269 5.47422V12.5242L1.8002 11.9242ZM22.2377 15.3742C22.2377 15.8242 21.8627 16.2367 21.3752 16.2367H9.00019C8.55019 16.2367 8.1377 15.8617 8.1377 15.3742V2.62422C8.1377 2.17422 8.5127 1.76172 9.00019 1.76172H21.3752C21.8252 1.76172 22.2377 2.13672 22.2377 2.62422V15.3742Z" fill="#0D5959"/>
<path d="M18.45 8.36016H15.8625V5.77266C15.8625 5.39766 15.5625 5.09766 15.1875 5.09766C14.8125 5.09766 14.5125 5.39766 14.5125 5.77266V8.36016H11.925C11.55 8.36016 11.25 8.66016 11.25 9.03516C11.25 9.41016 11.55 9.71016 11.925 9.71016H14.5125V12.2977C14.5125 12.6727 14.8125 12.9727 15.1875 12.9727C15.5625 12.9727 15.8625 12.6727 15.8625 12.2977V9.71016H18.45C18.825 9.71016 19.125 9.41016 19.125 9.03516C19.125 8.66016 18.7875 8.36016 18.45 8.36016Z" fill="#0D5959"/>
</svg>
