<svg width="40" height="40" viewBox="0 0 40 40" fill="none" xmlns="http://www.w3.org/2000/svg">
<rect width="40" height="40" rx="20" fill="#F7FCD9"/>
<path d="M29.3752 11.4502H17.0002C15.8002 11.4502 14.8252 12.4252 14.8252 13.6252V15.1627L9.8002 15.7627V12.3502C9.8002 11.9752 9.5002 11.6752 9.1252 11.6752C8.7502 11.6752 8.4502 11.9752 8.4502 12.3502V27.6127C8.4502 27.9877 8.7502 28.2877 9.1252 28.2877C9.5002 28.2877 9.8002 27.9877 9.8002 27.6127V24.2002L14.8627 24.8002V26.3752C14.8627 27.5752 15.8377 28.5502 17.0377 28.5502H29.4127C30.6127 28.5502 31.5877 27.5752 31.5877 26.3752V13.6252C31.5502 12.4252 30.5752 11.4502 29.3752 11.4502ZM9.8002 22.9252V17.0752L14.8627 16.4752V23.5252L9.8002 22.9252ZM30.2377 26.3752C30.2377 26.8252 29.8627 27.2377 29.3752 27.2377H17.0002C16.5502 27.2377 16.1377 26.8627 16.1377 26.3752V13.6252C16.1377 13.1752 16.5127 12.7627 17.0002 12.7627H29.3752C29.8252 12.7627 30.2377 13.1377 30.2377 13.6252V26.3752Z" fill="#0D5959"/>
<path d="M26.45 19.3631H23.8625V16.7756C23.8625 16.4006 23.5625 16.1006 23.1875 16.1006C22.8125 16.1006 22.5125 16.4006 22.5125 16.7756V19.3631H19.925C19.55 19.3631 19.25 19.6631 19.25 20.0381C19.25 20.4131 19.55 20.7131 19.925 20.7131H22.5125V23.3006C22.5125 23.6756 22.8125 23.9756 23.1875 23.9756C23.5625 23.9756 23.8625 23.6756 23.8625 23.3006V20.7131H26.45C26.825 20.7131 27.125 20.4131 27.125 20.0381C27.125 19.6631 26.7875 19.3631 26.45 19.3631Z" fill="#0D5959"/>
</svg>
