<svg width="40" height="40" viewBox="0 0 40 40" fill="none" xmlns="http://www.w3.org/2000/svg">
<rect width="40" height="40" rx="20" fill="#FFF7E0"/>
<path d="M22.1373 19.8156H20.6373V18.3156C20.6373 17.9406 20.3373 17.6406 19.9623 17.6406C19.5873 17.6406 19.2873 17.9406 19.2873 18.3156V19.8156H17.7873C17.4123 19.8156 17.1123 20.1156 17.1123 20.4906C17.1123 20.8656 17.4123 21.1656 17.7873 21.1656H19.2873V22.6656C19.2873 23.0406 19.5873 23.3406 19.9623 23.3406C20.3373 23.3406 20.6373 23.0406 20.6373 22.6656V21.1656H22.1373C22.5123 21.1656 22.8123 20.8656 22.8123 20.4906C22.8123 20.1156 22.5123 19.8156 22.1373 19.8156Z" fill="#FABB00"/>
<path d="M31.5498 19.2893C31.5498 17.6393 30.1998 16.2893 28.5498 16.2893H27.3873L27.1248 15.2768C26.9748 14.6768 26.5998 14.1893 26.0748 13.8893C25.5123 13.5893 24.9123 13.5143 24.2748 13.7393C20.8248 14.8268 17.3748 14.1518 15.6123 13.6268C15.0123 13.4768 14.4123 13.5143 13.8873 13.8518C13.3623 14.1518 12.9873 14.6393 12.8373 15.2393L12.5748 16.2893H11.4873C9.8373 16.2893 8.4873 17.6393 8.4873 19.2893C8.4873 20.7893 9.6123 22.0643 11.0373 22.2518L10.9623 22.5518C10.6998 23.6768 11.2998 24.8393 12.3873 25.2143C15.0498 26.1518 17.5998 26.4518 19.8873 26.4518C23.1498 26.4518 25.8498 25.7768 27.5748 25.2143C28.6998 24.8393 29.2998 23.6768 29.0373 22.5518L28.9623 22.2893C30.3873 22.1018 31.5498 20.8268 31.5498 19.2893ZM9.7998 19.2893C9.7998 18.3518 10.5498 17.6018 11.4873 17.6018H12.1998L11.3373 21.0143C10.4748 20.9393 9.7998 20.1893 9.7998 19.2893ZM27.1248 23.9768C24.3873 24.8768 18.9123 26.0768 12.7998 23.9768C12.3498 23.8268 12.1248 23.3393 12.2373 22.8893L14.0748 15.5768C14.1498 15.3143 14.2998 15.1268 14.5248 15.0143C14.6748 14.9393 14.8248 14.9018 14.9748 14.9018C15.0498 14.9018 15.1623 14.9018 15.2373 14.9393C17.1498 15.5018 20.8623 16.2143 24.6498 15.0143C24.9123 14.9393 25.1748 14.9393 25.3998 15.0893C25.6248 15.2018 25.7748 15.4268 25.8498 15.6518L27.7248 22.9268C27.8373 23.3393 27.5748 23.8268 27.1248 23.9768ZM28.5873 21.0143L27.6873 17.6018H28.5123C29.4498 17.6018 30.1998 18.3518 30.1998 19.2893C30.2373 20.2268 29.4873 20.9768 28.5873 21.0143Z" fill="#FABB00"/>
</svg>
