<svg width="40" height="40" viewBox="0 0 40 40" fill="none" xmlns="http://www.w3.org/2000/svg">
<rect width="40" height="40" rx="20" fill="#FFF7E0"/>
<path d="M26.0001 12.1242H24.8751V11.5992C24.8751 11.0367 24.4251 10.5492 23.8251 10.5492H20.6376V9.12422C20.6376 8.74922 20.3376 8.44922 19.9626 8.44922C19.5876 8.44922 19.3626 8.74922 19.3626 9.12422V10.5867H16.1751C15.6126 10.5867 15.1251 11.0367 15.1251 11.6367V12.1242H14.0001C12.8001 12.1242 11.7876 13.0992 11.7876 14.3367V29.3367C11.7876 30.5367 12.7626 31.5492 14.0001 31.5492H26.0001C27.2001 31.5492 28.2126 30.5742 28.2126 29.3367V14.3367C28.2126 13.1367 27.2001 12.1242 26.0001 12.1242ZM16.4376 11.8992H23.5626V13.6992H16.4376V11.8992ZM26.9001 29.3367C26.9001 29.8242 26.4876 30.2367 26.0001 30.2367H14.0001C13.5126 30.2367 13.1001 29.8242 13.1001 29.3367V14.3367C13.1001 13.8492 13.5126 13.4367 14.0001 13.4367H15.1251V13.9617C15.1251 14.5242 15.5751 15.0117 16.1751 15.0117H23.8626C24.4251 15.0117 24.9126 14.5617 24.9126 13.9617V13.4367H26.0376C26.5251 13.4367 26.9376 13.8492 26.9376 14.3367V29.3367H26.9001Z" fill="#FABB00"/>
<path d="M22.4376 23.6752L19.3251 26.7877L18.3126 25.7752C18.0501 25.5127 17.6376 25.5127 17.3751 25.7752C17.1126 26.0377 17.1126 26.4502 17.3751 26.7127L18.8751 28.2127C18.9876 28.3252 19.1751 28.4002 19.3251 28.4002C19.4751 28.4002 19.6626 28.3252 19.7751 28.2127L23.3376 24.6502C23.6001 24.3877 23.6001 23.9752 23.3376 23.7127C23.0751 23.4502 22.7001 23.4127 22.4376 23.6752Z" fill="#FABB00"/>
<path d="M22.9249 17.1484H17.0749C16.6999 17.1484 16.3999 17.4484 16.3999 17.8234C16.3999 18.1984 16.6999 18.4984 17.0749 18.4984H22.8874C23.2624 18.4984 23.5624 18.1984 23.5624 17.8234C23.5624 17.4484 23.2624 17.1484 22.9249 17.1484Z" fill="#FABB00"/>
<path d="M22.9249 20.4492H17.0749C16.6999 20.4492 16.3999 20.7492 16.3999 21.1242C16.3999 21.4992 16.6999 21.7992 17.0749 21.7992H22.8874C23.2624 21.7992 23.5624 21.4992 23.5624 21.1242C23.5624 20.7492 23.2624 20.4492 22.9249 20.4492Z" fill="#FABB00"/>
</svg>
