<svg width="24" height="24" viewBox="0 0 24 24" fill="none" xmlns="http://www.w3.org/2000/svg">
<g clip-path="url(#clip0_2220_228115)">
<path d="M21.9004 15.3375L9.90039 3.03749L11.3254 1.57499C11.5879 1.31249 11.5879 0.899988 11.3254 0.637488C11.0629 0.374988 10.6504 0.374988 10.3879 0.637488L8.88789 2.17499C8.43789 2.62499 8.43789 3.37499 8.88789 3.82499L17.0254 12.15C16.1254 13.125 14.5879 14.4375 13.7254 14.2125C12.2254 13.8 11.1004 14.7 10.5004 15.375L4.08789 8.84999C3.86289 8.62499 3.56289 8.47499 3.22539 8.47499C2.88789 8.47499 2.58789 8.58749 2.36289 8.84999L0.862891 10.3875C0.600391 10.65 0.600391 11.0625 0.862891 11.325C1.12539 11.5875 1.53789 11.5875 1.80039 11.325L3.18789 9.89999L15.1879 22.1625C16.0879 23.0625 17.2504 23.5875 18.5254 23.5875C19.8004 23.5875 20.9629 23.1 21.8629 22.1625C23.7379 20.25 23.7379 17.2125 21.9004 15.3375ZM20.9629 21.1875C20.3254 21.825 19.4629 22.2 18.5629 22.2C17.6629 22.2 16.8004 21.825 16.1629 21.1875L11.4004 16.35C11.7754 15.9 12.4879 15.3 13.3504 15.525C15.0379 15.975 17.0254 14.1375 17.9254 13.125L20.9629 16.2375C22.3129 17.625 22.3129 19.8375 20.9629 21.1875Z" fill="#FABB00"/>
</g>
<defs>
<clipPath id="clip0_2220_228115">
<rect width="24" height="24" fill="white"/>
</clipPath>
</defs>
</svg>
