<svg width="16" height="17" viewBox="0 0 16 17" fill="none" xmlns="http://www.w3.org/2000/svg">
<path d="M2.50001 8.50011C2.49986 7.53459 2.75388 6.58604 3.23655 5.74981C3.71921 4.91358 4.41351 4.21915 5.24964 3.73633C6.08577 3.2535 7.03427 2.99929 7.99979 2.99925C8.96532 2.99921 9.91384 3.25335 10.75 3.73611C10.8648 3.80137 11.0007 3.81858 11.1281 3.78399C11.2556 3.74939 11.3641 3.6658 11.4301 3.55146C11.4962 3.43712 11.5143 3.3013 11.4805 3.17365C11.4468 3.046 11.3639 2.93689 11.25 2.87011C10.0109 2.15469 8.57029 1.86813 7.15169 2.05487C5.73309 2.24161 4.41575 2.89121 3.40396 3.90293C2.39218 4.91466 1.74249 6.23196 1.55566 7.65055C1.36883 9.06913 1.6553 10.5097 2.37064 11.7489C3.08597 12.9881 4.19021 13.9566 5.51208 14.5043C6.83396 15.052 8.29961 15.1482 9.68173 14.778C11.0638 14.4078 12.2852 13.5919 13.1564 12.4568C14.0275 11.3217 14.4998 9.93095 14.5 8.50011C14.5 8.3675 14.4473 8.24033 14.3536 8.14656C14.2598 8.05279 14.1326 8.00011 14 8.00011C13.8674 8.00011 13.7402 8.05279 13.6465 8.14656C13.5527 8.24033 13.5 8.3675 13.5 8.50011C13.5 9.9588 12.9205 11.3577 11.8891 12.3892C10.8576 13.4206 9.4587 14.0001 8.00001 14.0001C6.54132 14.0001 5.14237 13.4206 4.11092 12.3892C3.07947 11.3577 2.50001 9.9588 2.50001 8.50011Z" fill="#2D3339" fill-opacity="0.8"/>
<path d="M15.3537 3.8539C15.4001 3.80741 15.437 3.75222 15.4622 3.69148C15.4873 3.63074 15.5003 3.56564 15.5003 3.4999C15.5003 3.43416 15.4873 3.36906 15.4622 3.30832C15.437 3.24758 15.4001 3.19239 15.3537 3.1459C15.3072 3.09941 15.252 3.06254 15.1912 3.03738C15.1305 3.01222 15.0654 2.99927 14.9997 2.99927C14.9339 2.99927 14.8688 3.01222 14.8081 3.03738C14.7473 3.06254 14.6921 3.09941 14.6457 3.1459L7.99966 9.7929L5.35366 7.1459C5.30717 7.09941 5.25198 7.06253 5.19124 7.03738C5.1305 7.01222 5.0654 6.99927 4.99966 6.99927C4.93391 6.99927 4.86881 7.01222 4.80807 7.03738C4.74733 7.06253 4.69214 7.09941 4.64566 7.1459C4.59917 7.19239 4.56229 7.24758 4.53713 7.30832C4.51197 7.36906 4.49902 7.43416 4.49902 7.4999C4.49902 7.56564 4.51197 7.63074 4.53713 7.69148C4.56229 7.75222 4.59917 7.80741 4.64566 7.8539L7.64566 10.8539C7.6921 10.9005 7.74728 10.9374 7.80802 10.9626C7.86877 10.9878 7.93389 11.0008 7.99966 11.0008C8.06542 11.0008 8.13054 10.9878 8.19129 10.9626C8.25203 10.9374 8.30721 10.9005 8.35366 10.8539L15.3537 3.8539Z" fill="#2D3339" fill-opacity="0.8"/>
</svg>