<svg width="22" height="25" viewBox="0 0 22 25" fill="none" xmlns="http://www.w3.org/2000/svg">
<path d="M16.1375 12.9492C15.9125 12.9492 15.725 12.9492 15.5 12.9867C15.5 12.9867 15.5 12.9867 15.5 12.9492C14.2625 11.4867 12.725 10.5117 11 10.1367C12.725 9.42422 13.9625 7.69922 13.9625 5.71172C13.9625 3.08672 11.825 0.949219 9.2 0.949219C6.575 0.949219 4.4375 3.08672 4.4375 5.71172C4.4375 7.69922 5.675 9.42422 7.4 10.1367C5.675 10.5492 4.1375 11.4867 2.9 12.9492C1.2875 14.8617 0.3875 17.5242 0.3125 20.4117C0.3125 20.6742 0.4625 20.8992 0.6875 21.0117C1.7 21.5367 5.3375 23.1867 9.2 23.1867C10.325 23.1867 11.525 23.0742 12.725 22.8117C13.6625 23.5617 14.8625 24.0117 16.175 24.0117C19.25 24.0117 21.725 21.5367 21.725 18.4617C21.6875 15.4242 19.2125 12.9492 16.1375 12.9492ZM5.75 5.74922C5.75 3.83672 7.2875 2.29922 9.2 2.29922C11.1125 2.29922 12.65 3.83672 12.65 5.74922C12.65 7.66172 11.1125 9.19922 9.2 9.19922C7.2875 9.19922 5.75 7.62422 5.75 5.74922ZM1.625 20.0367C1.7375 17.5992 2.525 15.3867 3.875 13.8117C5.2625 12.1617 7.1375 11.2617 9.1625 11.2617C11 11.2617 12.6875 12.0117 14.0375 13.3617C12.0125 14.1867 10.5875 16.1742 10.5875 18.4992C10.5875 19.6992 10.9625 20.7867 11.6 21.6867C10.775 21.7992 9.95 21.8742 9.1625 21.8742C5.975 21.8742 2.9375 20.6367 1.625 20.0367ZM16.1375 22.7367C13.8125 22.7367 11.9 20.8242 11.9 18.4992C11.9 16.1742 13.8125 14.2617 16.1375 14.2617C18.4625 14.2617 20.375 16.1367 20.375 18.4992C20.375 20.8617 18.4625 22.7367 16.1375 22.7367Z" fill="#2D3339" fill-opacity="0.8"/>
<path d="M17.45 17.6367H14.825C14.45 17.6367 14.15 17.9367 14.15 18.3117C14.15 18.6867 14.45 18.9867 14.825 18.9867H17.45C17.825 18.9867 18.125 18.6867 18.125 18.3117C18.125 17.9367 17.825 17.6367 17.45 17.6367Z" fill="#2D3339" fill-opacity="0.8"/>
</svg>
