<svg width="24" height="24" viewBox="0 0 24 24" fill="none" xmlns="http://www.w3.org/2000/svg">
<path d="M17.1375 12.4502C16.9125 12.4502 16.725 12.4502 16.5 12.4877C16.5 12.4877 16.5 12.4877 16.5 12.4502C15.2625 10.9877 13.725 10.0127 12 9.6377C13.725 8.9252 14.9625 7.2002 14.9625 5.2127C14.9625 2.5877 12.825 0.450195 10.2 0.450195C7.575 0.450195 5.4375 2.5877 5.4375 5.2127C5.4375 7.2002 6.675 8.9252 8.4 9.6377C6.675 10.0502 5.1375 10.9877 3.9 12.4502C2.2875 14.3627 1.3875 17.0252 1.3125 19.9127C1.3125 20.1752 1.4625 20.4002 1.6875 20.5127C2.7 21.0377 6.3375 22.6877 10.2 22.6877C11.325 22.6877 12.525 22.5752 13.725 22.3127C14.6625 23.0627 15.8625 23.5127 17.175 23.5127C20.25 23.5127 22.725 21.0377 22.725 17.9627C22.6875 14.9252 20.2125 12.4502 17.1375 12.4502ZM6.75 5.2502C6.75 3.3377 8.2875 1.8002 10.2 1.8002C12.1125 1.8002 13.65 3.3377 13.65 5.2502C13.65 7.1627 12.1125 8.7002 10.2 8.7002C8.2875 8.7002 6.75 7.1252 6.75 5.2502ZM2.625 19.5377C2.7375 17.1002 3.525 14.8877 4.875 13.3127C6.2625 11.6627 8.1375 10.7627 10.1625 10.7627C12 10.7627 13.6875 11.5127 15.0375 12.8627C13.0125 13.6877 11.5875 15.6752 11.5875 18.0002C11.5875 19.2002 11.9625 20.2877 12.6 21.1877C11.775 21.3002 10.95 21.3752 10.1625 21.3752C6.975 21.3752 3.9375 20.1377 2.625 19.5377ZM17.1375 22.2377C14.8125 22.2377 12.9 20.3252 12.9 18.0002C12.9 15.6752 14.8125 13.7627 17.1375 13.7627C19.4625 13.7627 21.375 15.6377 21.375 18.0002C21.375 20.3627 19.4625 22.2377 17.1375 22.2377Z" fill="#2D3339" fill-opacity="0.8"/>
<path d="M18.6005 16.3502L16.5005 18.3752L16.0505 17.8877C15.8255 17.6252 15.3755 17.6252 15.113 17.8502C14.8505 18.1127 14.8505 18.5252 15.0755 18.7877L15.9755 19.7627C16.088 19.8752 16.2755 19.9502 16.4255 19.9877C16.613 19.9877 16.763 19.9127 16.8755 19.8002L19.4255 17.2877C19.688 17.0252 19.688 16.6127 19.4255 16.3502C19.2755 16.0877 18.863 16.0877 18.6005 16.3502Z" fill="#2D3339" fill-opacity="0.8"/>
</svg>
