<svg width="22" height="24" viewBox="0 0 22 24" fill="none" xmlns="http://www.w3.org/2000/svg">
<path d="M16.1375 12.4502C15.9125 12.4502 15.725 12.4502 15.5 12.4877C15.5 12.4877 15.5 12.4877 15.5 12.4502C14.2625 10.9877 12.725 10.0127 11 9.6377C12.725 8.9252 13.9625 7.2002 13.9625 5.2127C13.9625 2.5877 11.825 0.450195 9.2 0.450195C6.575 0.450195 4.4375 2.5877 4.4375 5.2127C4.4375 7.2002 5.675 8.9252 7.4 9.6377C5.675 10.0502 4.1375 10.9877 2.9 12.4502C1.2875 14.3627 0.3875 17.0252 0.3125 19.9127C0.3125 20.1752 0.4625 20.4002 0.6875 20.5127C1.7 21.0377 5.3375 22.6877 9.2 22.6877C10.325 22.6877 11.525 22.5752 12.725 22.3127C13.6625 23.0627 14.8625 23.5127 16.175 23.5127C19.25 23.5127 21.725 21.0377 21.725 17.9627C21.6875 14.9252 19.2125 12.4502 16.1375 12.4502ZM5.75 5.2502C5.75 3.3377 7.2875 1.8002 9.2 1.8002C11.1125 1.8002 12.65 3.3377 12.65 5.2502C12.65 7.1627 11.1125 8.7002 9.2 8.7002C7.2875 8.7002 5.75 7.1252 5.75 5.2502ZM1.625 19.5377C1.7375 17.1002 2.525 14.8877 3.875 13.3127C5.2625 11.6627 7.1375 10.7627 9.1625 10.7627C11 10.7627 12.6875 11.5127 14.0375 12.8627C12.0125 13.6877 10.5875 15.6752 10.5875 18.0002C10.5875 19.2002 10.9625 20.2877 11.6 21.1877C10.775 21.3002 9.95 21.3752 9.1625 21.3752C5.975 21.3752 2.9375 20.1377 1.625 19.5377ZM16.1375 22.2377C13.8125 22.2377 11.9 20.3252 11.9 18.0002C11.9 15.6752 13.8125 13.7627 16.1375 13.7627C18.4625 13.7627 20.375 15.6377 20.375 18.0002C20.375 20.3627 18.4625 22.2377 16.1375 22.2377Z" fill="#0D5959"/>
<path d="M17.6005 16.3502L15.5005 18.3752L15.0505 17.8877C14.8255 17.6252 14.3755 17.6252 14.113 17.8502C13.8505 18.1127 13.8505 18.5252 14.0755 18.7877L14.9755 19.7627C15.088 19.8752 15.2755 19.9502 15.4255 19.9877C15.613 19.9877 15.763 19.9127 15.8755 19.8002L18.4255 17.2877C18.688 17.0252 18.688 16.6127 18.4255 16.3502C18.2755 16.0877 17.863 16.0877 17.6005 16.3502Z" fill="#0D5959"/>
</svg>
