<svg width="20" height="24" viewBox="0 0 20 24" fill="none" xmlns="http://www.w3.org/2000/svg">
<path d="M16.525 12.9359C15.25 11.3984 13.6 10.3859 11.8 10.0109C13.6375 9.29844 14.95 7.49844 14.95 5.43594C14.95 2.73594 12.7375 0.523438 10.0375 0.523438C7.33751 0.523438 5.12501 2.73594 5.12501 5.43594C5.12501 7.53594 6.43751 9.29844 8.27501 10.0109C6.47501 10.4234 4.82501 11.4359 3.55001 12.9359C1.86251 14.9234 0.925012 17.6984 0.887512 20.6984C0.887512 20.9609 1.03751 21.1859 1.26251 21.2984C2.31251 21.8234 6.06251 23.5484 10.1125 23.5484C14.4625 23.5484 17.9875 21.8234 18.9625 21.2984C19.1875 21.1859 19.3 20.9609 19.3 20.6984C19.15 17.6984 18.2125 14.9234 16.525 12.9359ZM6.40001 5.39844C6.40001 3.41094 8.01251 1.79844 10 1.79844C11.9875 1.79844 13.6 3.41094 13.6 5.39844C13.6 7.38594 11.9875 8.99844 10 8.99844C8.01251 8.99844 6.40001 7.38594 6.40001 5.39844ZM10 22.2359C6.62501 22.2359 3.32501 20.8859 2.12501 20.3234C2.23751 17.7734 3.06251 15.4859 4.48751 13.7984C5.95001 12.0734 7.90001 11.1359 10 11.1359C12.1 11.1359 14.05 12.0734 15.5125 13.7984C16.9375 15.4859 17.7625 17.7734 17.875 20.3234C16.6375 20.9234 13.6375 22.2359 10 22.2359Z" fill="#2D3339"/>
</svg>
