<svg width="14" height="16" viewBox="0 0 14 16" fill="none" xmlns="http://www.w3.org/2000/svg">
<path d="M11.3498 8.62656C10.4998 7.60156 9.3998 6.92656 8.1998 6.67656C9.4248 6.20156 10.2998 5.00156 10.2998 3.62656C10.2998 1.82656 8.8248 0.351562 7.0248 0.351562C5.2248 0.351562 3.7498 1.82656 3.7498 3.62656C3.7498 5.02656 4.6248 6.20156 5.8498 6.67656C4.6498 6.95156 3.5498 7.62656 2.6998 8.62656C1.5748 9.95156 0.949805 11.8016 0.924805 13.8016C0.924805 13.9766 1.0248 14.1266 1.1748 14.2016C1.8748 14.5516 4.3748 15.7016 7.0748 15.7016C9.9748 15.7016 12.3248 14.5516 12.9748 14.2016C13.1248 14.1266 13.1998 13.9766 13.1998 13.8016C13.0998 11.8016 12.4748 9.95156 11.3498 8.62656ZM4.5998 3.60156C4.5998 2.27656 5.6748 1.20156 6.9998 1.20156C8.3248 1.20156 9.3998 2.27656 9.3998 3.60156C9.3998 4.92656 8.3248 6.00156 6.9998 6.00156C5.6748 6.00156 4.5998 4.92656 4.5998 3.60156ZM6.9998 14.8266C4.7498 14.8266 2.5498 13.9266 1.7498 13.5516C1.8248 11.8516 2.3748 10.3266 3.3248 9.20156C4.2998 8.05156 5.5998 7.42656 6.9998 7.42656C8.3998 7.42656 9.6998 8.05156 10.6748 9.20156C11.6248 10.3266 12.1748 11.8516 12.2498 13.5516C11.4248 13.9516 9.4248 14.8266 6.9998 14.8266Z" fill="#2D3339" fill-opacity="0.8"/>
</svg>
