<svg width="40" height="40" viewBox="0 0 40 40" fill="none" xmlns="http://www.w3.org/2000/svg">
<rect width="40" height="40" rx="20" fill="#F7FCD9"/>
<g clip-path="url(#clip0_965_65567)">
<path d="M27.9877 8.48828H24.8002H15.2002H12.0127C10.0627 8.48828 8.4502 10.1008 8.4502 12.0508V27.9883C8.4502 29.9383 10.0627 31.5508 12.0127 31.5508H27.9502C29.9002 31.5508 31.5127 29.9383 31.5127 27.9883V12.0133C31.5502 10.0633 29.9377 8.48828 27.9877 8.48828ZM24.1252 9.80078V12.2758C24.1252 13.2133 23.3377 14.0008 22.4002 14.0008H20.5627L21.4627 12.3883C21.6502 12.0883 21.5377 11.6758 21.2002 11.4883C20.9002 11.3008 20.4877 11.4133 20.3002 11.7508L19.0252 14.0008H17.5627C16.6252 14.0008 15.8752 13.2133 15.8752 12.2758V9.80078H24.1252ZM30.2377 27.9883C30.2377 29.2258 29.2252 30.2383 27.9877 30.2383H12.0127C10.7752 30.2383 9.7627 29.2258 9.7627 27.9883V12.0133C9.7627 10.7758 10.7752 9.76328 12.0127 9.76328H14.5252V12.2383C14.5252 13.9258 15.8752 15.2758 17.5627 15.2758H19.4002H22.3627C24.0502 15.2758 25.4002 13.9258 25.4002 12.2383V9.80078H27.9127C29.1502 9.80078 30.1627 10.8133 30.1627 12.0508V27.9883H30.2377Z" fill="#718E0B"/>
</g>
<defs>
<clipPath id="clip0_965_65567">
<rect width="24" height="24" fill="white" transform="translate(8 8)"/>
</clipPath>
</defs>
</svg>
