<svg width="40" height="39" viewBox="0 0 40 39" fill="none" xmlns="http://www.w3.org/2000/svg">
<path d="M13.7851 17.534C10.8901 17.534 8.56567 16.6659 6.86461 14.9509C4.24434 12.2936 3.25117 7.79428 3.80058 1.18819C3.83228 0.754135 4.07529 0.351842 4.43452 0.108348C4.80432 -0.135146 5.25864 -0.188079 5.67069 -0.0504522C11.7248 1.98219 15.3593 4.63945 16.7963 8.06953C17.8634 10.6315 17.6309 13.5323 16.0884 16.6977C15.8665 17.1529 15.4122 17.4599 14.905 17.4917C14.5247 17.5234 14.1443 17.534 13.7851 17.534ZM6.53707 3.30552C6.36802 7.94249 7.16044 11.182 8.90377 12.9394C10.066 14.1251 11.6931 14.6862 13.8696 14.6756C14.736 12.59 14.8311 10.7797 14.1654 9.18113C13.204 6.89441 10.6471 4.92529 6.53707 3.30552Z" fill="#B4D411"/>
<path d="M9.15895 32.9363C6.80282 32.9363 4.02407 32.0364 0.738168 30.2155C0.357806 30.0038 0.0936663 29.6226 0.0197071 29.1886C-0.0542521 28.7545 0.0831007 28.3099 0.378938 27.9923C3.85502 24.2128 7.00357 22.4025 10.0465 22.4872C12.3286 22.5401 14.4206 23.6941 16.2485 25.8961C16.576 26.2878 16.6711 26.8278 16.4915 27.3042C15.53 29.9508 13.9769 31.687 11.8849 32.4705C11.0502 32.7881 10.1416 32.9363 9.15895 32.9363ZM3.80219 28.5851C6.82395 30.0143 9.20121 30.4272 10.8917 29.792C11.9905 29.3791 12.8463 28.5004 13.4908 27.103C12.3709 25.9596 11.2087 25.3774 9.9725 25.3456C8.17635 25.3033 6.11606 26.3937 3.80219 28.5851Z" fill="#B4D411"/>
<path d="M30.9026 30.748C29.6876 30.748 28.3986 30.4516 27.0251 29.8587C26.5602 29.6576 26.2326 29.2235 26.1693 28.7153C25.8206 25.8675 26.4228 23.5596 27.9548 21.8552C29.9729 19.6002 33.4489 18.531 38.5838 18.5839C39.017 18.5839 39.4291 18.7956 39.7038 19.145C39.9679 19.4944 40.063 19.9496 39.9573 20.3731C38.6366 25.5393 36.6609 28.7048 33.935 30.0493C32.9946 30.5151 31.9803 30.748 30.9026 30.748ZM28.948 27.5296C30.4061 28.0166 31.6317 27.9955 32.6882 27.4767C34.3048 26.6827 35.636 24.6712 36.6714 21.4847C33.4912 21.6646 31.283 22.4269 30.0891 23.7608C29.2544 24.6924 28.8846 25.9311 28.948 27.5296Z" fill="#B4D411"/>
<path d="M28.4307 13.1616H26.3704V11.0972C26.3704 10.3032 25.7259 9.66797 24.9441 9.66797C24.1517 9.66797 23.5177 10.3032 23.5177 11.0972V13.1616H21.4469C20.6544 13.1616 20.0205 13.7968 20.0205 14.5908C20.0205 15.3848 20.665 16.02 21.4469 16.02H23.5072V18.0844C23.5072 18.8784 24.1517 19.5136 24.9335 19.5136C25.7259 19.5136 26.3599 18.8784 26.3599 18.0844V16.02H28.4202C29.2126 16.02 29.8465 15.3848 29.8465 14.5908C29.8571 13.8074 29.2232 13.1616 28.4307 13.1616Z" fill="#F43460"/>
<path d="M15.8054 22.0776L27.66 38.8787H31.1995L18.394 20.7966C17.8445 19.8015 17.3902 19.5156 16.3759 19.5156C15.4462 19.5156 14.9707 19.7485 14.9707 20.2143C14.9707 20.6802 15.2877 21.2095 15.7209 21.9294L15.8054 22.0776Z" fill="#2D3339"/>
</svg>
