<svg width="40" height="40" viewBox="0 0 40 40" fill="none" xmlns="http://www.w3.org/2000/svg">
<rect width="40" height="40" rx="20" fill="#EEF0F1"/>
<path d="M25.1375 20.4502C24.9125 20.4502 24.725 20.4502 24.5 20.4877C24.5 20.4877 24.5 20.4877 24.5 20.4502C23.2625 18.9877 21.725 18.0127 20 17.6377C21.725 16.9252 22.9625 15.2002 22.9625 13.2127C22.9625 10.5877 20.825 8.4502 18.2 8.4502C15.575 8.4502 13.4375 10.5877 13.4375 13.2127C13.4375 15.2002 14.675 16.9252 16.4 17.6377C14.675 18.0502 13.1375 18.9877 11.9 20.4502C10.2875 22.3627 9.3875 25.0252 9.3125 27.9127C9.3125 28.1752 9.4625 28.4002 9.6875 28.5127C10.7 29.0377 14.3375 30.6877 18.2 30.6877C19.325 30.6877 20.525 30.5752 21.725 30.3127C22.6625 31.0627 23.8625 31.5127 25.175 31.5127C28.25 31.5127 30.725 29.0377 30.725 25.9627C30.6875 22.9252 28.2125 20.4502 25.1375 20.4502ZM14.75 13.2502C14.75 11.3377 16.2875 9.8002 18.2 9.8002C20.1125 9.8002 21.65 11.3377 21.65 13.2502C21.65 15.1627 20.1125 16.7002 18.2 16.7002C16.2875 16.7002 14.75 15.1252 14.75 13.2502ZM10.625 27.5377C10.7375 25.1002 11.525 22.8877 12.875 21.3127C14.2625 19.6627 16.1375 18.7627 18.1625 18.7627C20 18.7627 21.6875 19.5127 23.0375 20.8627C21.0125 21.6877 19.5875 23.6752 19.5875 26.0002C19.5875 27.2002 19.9625 28.2877 20.6 29.1877C19.775 29.3002 18.95 29.3752 18.1625 29.3752C14.975 29.3752 11.9375 28.1377 10.625 27.5377ZM25.1375 30.2377C22.8125 30.2377 20.9 28.3252 20.9 26.0002C20.9 23.6752 22.8125 21.7627 25.1375 21.7627C27.4625 21.7627 29.375 23.6377 29.375 26.0002C29.375 28.3627 27.4625 30.2377 25.1375 30.2377Z" fill="#2D3339" fill-opacity="0.8"/>
<path d="M26.4504 25.1377H23.8254C23.4504 25.1377 23.1504 25.4377 23.1504 25.8127C23.1504 26.1877 23.4504 26.4877 23.8254 26.4877H26.4504C26.8254 26.4877 27.1254 26.1877 27.1254 25.8127C27.1254 25.4377 26.8254 25.1377 26.4504 25.1377Z" fill="#2D3339" fill-opacity="0.8"/>
</svg>
