<svg width="16" height="16" viewBox="0 0 16 16" fill="none" xmlns="http://www.w3.org/2000/svg">
<g clip-path="url(#clip0_271_131859)">
<path d="M14.6252 4.1002C13.2502 1.7752 10.8252 0.350195 8.1252 0.325195C8.0252 0.325195 7.9252 0.325195 7.8752 0.325195C5.1752 0.350195 2.7502 1.7752 1.3752 4.1002C0.675195 5.2752 0.325195 6.6252 0.325195 8.0002C0.325195 9.6502 0.825195 11.2002 1.8002 12.5252C3.2502 14.5002 5.4502 15.6502 7.8752 15.6752C7.9252 15.6752 7.9502 15.6752 8.0002 15.6752C8.0502 15.6752 8.0752 15.6752 8.1252 15.6752C10.5502 15.6502 12.7752 14.5002 14.2002 12.5252C15.1752 11.2002 15.6752 9.6252 15.6752 8.0002C15.7002 6.6252 15.3252 5.2752 14.6252 4.1002ZM13.5752 4.1002C12.5002 4.4502 11.4002 4.7252 10.2502 4.8502C9.9502 3.6002 9.4502 2.3752 8.8002 1.2502C10.7502 1.4752 12.4502 2.5002 13.5752 4.1002ZM7.8252 14.7002C7.2502 13.7752 6.8002 12.8252 6.5002 11.8252C7.3752 11.7502 8.3002 11.7502 9.1752 11.8002C8.8502 12.8002 8.4002 13.7752 7.8252 14.7002ZM5.9002 8.0002C5.9002 7.2502 5.9752 6.5002 6.1002 5.7752H6.1252C6.7252 5.8252 7.3502 5.8752 8.0002 5.8752C8.5252 5.8752 9.0502 5.8502 9.5752 5.8002C9.7002 6.5252 9.7752 7.2752 9.7752 8.0002C9.7752 9.0002 9.6502 9.9752 9.4252 10.9252C8.4002 10.8502 7.3502 10.8502 6.3252 10.9502C6.3002 10.9502 6.3002 10.9502 6.2752 10.9502C6.0252 10.0002 5.9002 9.0002 5.9002 8.0002ZM9.3752 4.9252C8.3502 5.0002 7.2752 5.0002 6.2752 4.9002C6.6002 3.6502 7.1252 2.4252 7.8252 1.3002C8.5502 2.4502 9.0502 3.6752 9.3752 4.9252ZM6.8252 1.3002C6.2002 2.4252 5.7252 3.6002 5.4252 4.8002C4.4002 4.6502 3.4002 4.4252 2.4252 4.1002C3.4752 2.6002 5.0252 1.6002 6.8252 1.3002ZM1.2002 8.0002C1.2002 6.9002 1.4752 5.8252 1.9752 4.8502C3.0252 5.2252 4.1252 5.4752 5.2502 5.6502C5.1002 6.4252 5.0502 7.2002 5.0502 8.0002C5.0502 9.0252 5.1752 10.0502 5.4002 11.0502C4.3752 11.2002 3.3502 11.4252 2.3752 11.7502L2.4002 11.8252C1.6002 10.6752 1.2002 9.3752 1.2002 8.0002ZM2.9002 12.5002C3.7752 12.2252 4.7002 12.0252 5.6252 11.9002C5.9252 12.8752 6.3252 13.8002 6.8502 14.7002C5.3002 14.4502 3.9252 13.6752 2.9002 12.5002ZM8.8002 14.7752C9.3252 13.8502 9.7502 12.8752 10.0502 11.8752C11.0752 12.0002 12.1002 12.2002 13.1002 12.5002C12.0002 13.7752 10.4752 14.5752 8.8002 14.7752ZM13.6502 11.8252L13.6752 11.7502C12.5752 11.4002 11.4502 11.1502 10.3002 11.0252C10.5252 10.0502 10.6502 9.0252 10.6502 8.0002C10.6502 7.2252 10.5752 6.4752 10.4502 5.7002C11.6752 5.5502 12.9002 5.2502 14.0502 4.8502C14.5502 5.8252 14.8252 6.9002 14.8252 8.0002C14.8252 9.3752 14.4002 10.6752 13.6502 11.8252Z" fill="#2D3339"/>
</g>
<defs>
<clipPath id="clip0_271_131859">
<rect width="16" height="16" fill="white"/>
</clipPath>
</defs>
</svg>
